<svg id="Layer_1" data-name="Layer 1" xmlns="http://www.w3.org/2000/svg" viewBox="0 0 174.07 214.25"><defs><style>.cls-1{fill:#0e5740;}.cls-2{fill:#b9975b;}.cls-3{font-size:27px;fill:#231f20;font-family:NasalizationRg-Regular, Nasalization;}.cls-4{letter-spacing:-0.02em;}.cls-5{letter-spacing:0.07em;}.cls-6{letter-spacing:0.08em;}.cls-7{letter-spacing:0.06em;}.cls-8{letter-spacing:0.08em;}</style></defs><path class="cls-1" d="M355.45,572.89A69,69,0,0,1,293,533.29a1.82,1.82,0,0,1,.87-2.41,1.8,1.8,0,0,1,2.4.87,65.41,65.41,0,0,0,96.09,26.1l.59-.41a1.81,1.81,0,0,1,2.07,3l-.62.43A68.57,68.57,0,0,1,355.45,572.89Z" transform="translate(-272.04 -434.93)"/><path class="cls-1" d="M418.14,481.52a1.8,1.8,0,0,1-1.69-1.15,65.13,65.13,0,0,0-33.28-35.68,1.81,1.81,0,0,1,1.53-3.27,69.17,69.17,0,0,1,35.12,37.65,1.8,1.8,0,0,1-1,2.33A1.69,1.69,0,0,1,418.14,481.52Z" transform="translate(-272.04 -434.93)"/><path class="cls-1" d="M289.64,519.22a1.8,1.8,0,0,1-1.77-1.45,69,69,0,0,1,67.58-82.84,69.82,69.82,0,0,1,12.77,1.18l1.29.25a1.81,1.81,0,0,1-.73,3.54l-1.23-.24a65.43,65.43,0,0,0-76.14,77.39,1.8,1.8,0,0,1-1.41,2.13A1.53,1.53,0,0,1,289.64,519.22Z" transform="translate(-272.04 -434.93)"/><path class="cls-1" d="M398.1,556.32l.35,0Z" transform="translate(-272.04 -434.93)"/><path class="cls-1" d="M398.45,556.35a1,1,0,0,0,.24,0h0Z" transform="translate(-272.04 -434.93)"/><path class="cls-1" d="M398.69,556.36a3.2,3.2,0,0,0,.63-.07A2.59,2.59,0,0,1,398.69,556.36Z" transform="translate(-272.04 -434.93)"/><path class="cls-1" d="M397.53,556.16a3.7,3.7,0,0,0,.57.16A4,4,0,0,1,397.53,556.16Z" transform="translate(-272.04 -434.93)"/><path class="cls-1" d="M400.09,556a3,3,0,0,1-.68.26A3.52,3.52,0,0,0,400.09,556Z" transform="translate(-272.04 -434.93)"/><path class="cls-1" d="M399.41,556.28h0Z" transform="translate(-272.04 -434.93)"/><path class="cls-1" d="M328.7,459.2a4.29,4.29,0,0,0-1.5.28,4.43,4.43,0,0,1,1.8-.26Zm.3,0h0Zm-1.88.29.08,0Zm0,0a4.54,4.54,0,0,0-.82.42A4.23,4.23,0,0,1,327.12,459.51Zm1.92-.28a4.13,4.13,0,0,1,.92.16A4.13,4.13,0,0,0,329,459.23Z" transform="translate(-272.04 -434.93)"/><path class="cls-1" d="M407,549.34l-6.13,6.13a2.29,2.29,0,0,1-.23.21,3.58,3.58,0,0,1-.52.34,3.12,3.12,0,0,1-1.44.35,3.09,3.09,0,0,1-1.12-.21,3,3,0,0,1-1-.65l-66.15-63.36-.3.3a4.38,4.38,0,0,1-6.19,0l-.14-.14c-12.68,13.27-24,26.32-30.91,36.1a1,1,0,0,1-1.86-.79,109.37,109.37,0,0,1,21.45-46.38l-.69-.69a4.36,4.36,0,0,1,0-6.18l.38-.38-2.47-2.48a1.76,1.76,0,0,1,0-2.49l9.4-12.37a1.74,1.74,0,0,1,1.25-.52,1.72,1.72,0,0,1,1.24.52l4,4,.12-.12a3.94,3.94,0,0,1,.69-.56,4.39,4.39,0,0,1,3.66-.54,3.17,3.17,0,0,1,.4.14,4,4,0,0,1,.61.32,3.84,3.84,0,0,1,.83.64l.65.65a109.36,109.36,0,0,1,46.67-21.67l.22,0a1,1,0,0,1,.77,1.69,1.8,1.8,0,0,1-.2.18c-9.77,6.9-22.83,18.23-36.1,30.92l.14.14a4.38,4.38,0,0,1,0,6.19l-.3.3L407,545A3.1,3.1,0,0,1,407,549.34Z" transform="translate(-272.04 -434.93)"/><path class="cls-2" d="M345.33,514.82A2.78,2.78,0,0,1,340.7,512l-11.89-11.09a2.77,2.77,0,1,1,.75-4.55,2.74,2.74,0,0,1,.69,3l11.9,11.09a2.77,2.77,0,0,1,3.18,4.41Z" transform="translate(-272.04 -434.93)"/><path class="cls-2" d="M356.2,564.37a2.78,2.78,0,0,1-4.63-2.87l-12.1-11.3-15.1-.76a2.78,2.78,0,1,1,.1-2.1l15.49.78a1,1,0,0,1,.66.28L353,560a2.77,2.77,0,0,1,3.18,4.41Z" transform="translate(-272.04 -434.93)"/><path class="cls-2" d="M380.36,560.1a2.78,2.78,0,0,1-4.6-2.91l-29-27.49a2.72,2.72,0,0,1-3-.51,2.77,2.77,0,1,1,4.49-1l29,27.49a2.74,2.74,0,0,1,3,.51A2.77,2.77,0,0,1,380.36,560.1Z" transform="translate(-272.04 -434.93)"/><path class="cls-2" d="M338.86,531.56a2.77,2.77,0,0,1-5.38.78l-27-1.35a1,1,0,0,1-.71-.33l-2.69-2.85a2.77,2.77,0,0,1-2.91-4.6,2.77,2.77,0,0,1,4.43,3.15l2.41,2.55,26.54,1.33a2.77,2.77,0,0,1,5.28,1.32Z" transform="translate(-272.04 -434.93)"/><path class="cls-2" d="M388.49,555.72a2.78,2.78,0,0,1-3.92.11,2.74,2.74,0,0,1-.68-3l-33-31.24-15.22-1.64a1,1,0,0,1-.6-.28l-13.24-12.35a2.77,2.77,0,1,1,1.44-1.54l13,12.11,15.22,1.64a1.06,1.06,0,0,1,.61.29l33.28,31.48a2.73,2.73,0,0,1,3,.51A2.78,2.78,0,0,1,388.49,555.72Z" transform="translate(-272.04 -434.93)"/><path class="cls-2" d="M347.51,540.22a2.76,2.76,0,0,1-5.36.83l-28.88-1.2a2.79,2.79,0,0,1-2.64,1.6,2.77,2.77,0,1,1,2.71-3.71l28.89,1.2a2.77,2.77,0,0,1,5.28,1.28Z" transform="translate(-272.04 -434.93)"/><path class="cls-2" d="M369.84,562.91a2.78,2.78,0,0,1-3.92.14,2.75,2.75,0,0,1-.69-3l-11.66-10.87a2.77,2.77,0,1,1,.74-4.55,2.75,2.75,0,0,1,.69,3l11.66,10.87a2.77,2.77,0,0,1,3.18,4.41Z" transform="translate(-272.04 -434.93)"/><path class="cls-2" d="M330.18,524.13a2.77,2.77,0,0,1-4.63-2.86l-9.42-8.77-5.75,5.42a2.79,2.79,0,1,1-1.46-1.53l6.48-6.1a1.05,1.05,0,0,1,1.44,0L327,519.73a2.77,2.77,0,0,1,3.19,4.4Z" transform="translate(-272.04 -434.93)"/><path class="cls-2" d="M428,512.76l-1,5.54a1.66,1.66,0,0,1-1.25,1.32l-12.3,2.9-1.47,2.74L416.37,537a1.62,1.62,0,0,1-.4,1.77l-4.08,3.91a1.63,1.63,0,0,1-1.14.46,1.67,1.67,0,0,1-1.19-.5l-16.91-17.46a1.63,1.63,0,0,1-.47-1.26,1.68,1.68,0,0,1,.63-1.19,19.42,19.42,0,0,0,7.69-17A18.9,18.9,0,0,0,380,488.69c-4.64.43-9,2.81-13.27,7.3a1.67,1.67,0,0,1-1.19.52h0a1.66,1.66,0,0,1-1.18-.51l-16.94-17.48a1.64,1.64,0,0,1,0-2.34l4.08-3.91a1.66,1.66,0,0,1,1.78-.33L365,476.78l2.82-1.36,3.36-12.11a1.66,1.66,0,0,1,1.37-1.2l5.6-.78a1.68,1.68,0,0,1,1.65.78l6.55,10.73,3.08.54,9.89-7.84a1.66,1.66,0,0,1,1.8-.17l5,2.65a1.66,1.66,0,0,1,.88,1.6l-1,12.51,2.17,2.23,12.62-.57a1.66,1.66,0,0,1,1.56.93l2.48,5.06a1.65,1.65,0,0,1-.24,1.81l-8.24,9.52.43,3.07,10.54,6.91A1.65,1.65,0,0,1,428,512.76Z" transform="translate(-272.04 -434.93)"/><path class="cls-2" d="M391.12,511.08l-5.2,4.92a1.67,1.67,0,0,1-2.34-.06l-10.34-10.83a1.67,1.67,0,0,1-.46-1.18,1.65,1.65,0,0,1,.52-1.16l5.21-4.93a1.64,1.64,0,0,1,1.6-.38l8.29,2.43a1.66,1.66,0,0,1,1.15,1.2l2,8.4A1.66,1.66,0,0,1,391.12,511.08Z" transform="translate(-272.04 -434.93)"/><text class="cls-3" transform="translate(3.51 168.75)">GOLD <tspan class="cls-4" x="85.62" y="0">R</tspan><tspan x="104.49" y="0">USH </tspan><tspan class="cls-5"><tspan x="2.92" y="32.4">R</tspan><tspan class="cls-6" x="23.97" y="32.4">OB</tspan><tspan class="cls-7" x="69.79" y="32.4">O</tspan><tspan class="cls-8" x="93.47" y="32.4">TICS</tspan></tspan></text></svg>