<?xml version="1.0" encoding="UTF-8"?>
<svg id="Layer_1" data-name="Layer 1" xmlns="http://www.w3.org/2000/svg" viewBox="0 0 1600 500">
  <defs>
    <style>
      .cls-1 {
        stroke-width: 11px;
      }

      .cls-1, .cls-2, .cls-3 {
        stroke-linecap: round;
      }

      .cls-1, .cls-3 {
        stroke: #b9975b;
        stroke-linejoin: round;
      }

      .cls-1, .cls-4 {
        fill: #b9975b;
      }

      .cls-5 {
        fill: #0e5740;
      }

      .cls-6 {
        fill: #231f20;
        font-family: NasalizationRg-Regular, Nasalization;
        font-size: 175px;
      }

      .cls-7 {
        letter-spacing: 0em;
      }

      .cls-2 {
        stroke: #0e5740;
        stroke-miterlimit: 10;
        stroke-width: 12px;
      }

      .cls-2, .cls-3 {
        fill: none;
      }

      .cls-8 {
        letter-spacing: 0em;
      }

      .cls-3 {
        stroke-width: 7px;
      }

      .cls-9 {
        letter-spacing: -.02em;
      }

      .cls-10 {
        letter-spacing: -.02em;
      }
    </style>
  </defs>
  <path class="cls-2" d="m376.92,432.74c-.67.47-1.33.93-2,1.39-35.87,24.6-79.28,38.99-126.06,38.99-89.24,0-166.25-52.39-201.94-128.1"/>
  <path class="cls-2" d="m461.17,318.79c-1.9,5.88-4.04,11.65-6.41,17.3"/>
  <path class="cls-2" d="m471.98,250c0-5.27-.18-10.49-.54-15.66"/>
  <path class="cls-2" d="m343.47,47.87c51.87,24.32,92.85,68.02,113.61,121.78"/>
  <path class="cls-2" d="m30.24,294.86c-2.96-14.49-4.51-29.49-4.51-44.86C25.73,126.77,125.62,26.87,248.85,26.87c14.11,0,27.92,1.31,41.31,3.82,1.4.26,2.8.54,4.19.83"/>
  <g>
    <path class="cls-5" d="m392.36,421.77c-2.01,0-3.92-.77-5.38-2.16l-221.48-212.19-2.73,2.73c-2.27,2.27-5.29,3.53-8.51,3.53s-6.24-1.25-8.51-3.52l-2.27-2.27-1.77,1.85c-44.55,46.6-81.11,89.29-102.93,120.19-.2.28-.42.41-.7.41-.3,0-.62-.15-.81-.38-.16-.19-.21-.43-.15-.73,10.42-54.18,34.88-107.08,70.74-152.99l1.36-1.74-3.85-3.84c-2.27-2.27-3.52-5.29-3.52-8.51s1.25-6.24,3.52-8.51l3.04-3.04-9.98-9.98c-1.31-1.31-1.31-3.43,0-4.74l.12-.12,31.22-41.09c.62-.57,1.42-.88,2.26-.88.9,0,1.74.35,2.37.98l14.91,14.91,2.17-2.17c2.27-2.27,5.3-3.53,8.51-3.53s6.24,1.25,8.51,3.52l3.75,3.75,1.74-1.37c46.15-36.28,99.38-61,153.94-71.5.08-.02.16-.02.24-.02.58,0,.79.56.82.67.2.63-.22.92-.35,1.02-30.9,21.82-73.59,58.37-120.19,102.93l-1.85,1.77,2.27,2.27c4.69,4.69,4.69,12.33,0,17.02l-2.73,2.73,212.19,221.48c2.9,3.03,2.84,7.91-.12,10.88l-20.35,20.35c-1.47,1.47-3.42,2.28-5.5,2.28h0Z"/>
    <path class="cls-5" d="m321.23,42.33c-30.41,22.23-70.74,57.03-114.49,98.86l-3.7,3.53,3.62,3.62.46.46c3.72,3.72,3.72,9.77,0,13.48l-1,1-3.46,3.46,3.39,3.53,210.49,219.71c1.97,2.06,1.93,5.37-.08,7.38l-20.35,20.35c-1,1-2.32,1.55-3.73,1.55s-2.66-.52-3.65-1.46l-219.72-210.49-3.53-3.39-3.46,3.46-1,1c-1.8,1.8-4.19,2.79-6.74,2.79s-4.94-.99-6.74-2.79l-.46-.46-3.62-3.62-3.53,3.7c-41.83,43.75-76.63,84.08-98.86,114.49,11.07-51.27,34.76-101.16,68.79-144.72l2.72-3.49-3.13-3.13-2.28-2.28c-3.72-3.72-3.72-9.77,0-13.48l1.27-1.27,3.54-3.54-3.54-3.54-8.21-8.21c-.21-.21-.25-.44-.25-.6s.04-.4.25-.6l.24-.24.21-.27,30.93-40.72c.16-.1.33-.13.45-.13.16,0,.4.04.6.25l13.15,13.15,3.54,3.54,3.54-3.54.4-.4c1.8-1.8,4.19-2.79,6.74-2.79,2.55,0,4.94.99,6.74,2.79l2.18,2.18,3.14,3.14,3.49-2.74c43.8-34.44,94.02-58.39,145.67-69.54m6.96-6.45c-.23,0-.47.02-.71.07-56.55,10.88-109.68,36.35-155.02,71.99l-2.18-2.18c-2.84-2.84-6.56-4.26-10.28-4.26-3.72,0-7.44,1.42-10.28,4.26l-.4.4-13.15-13.15c-1.14-1.14-2.64-1.71-4.14-1.71s-2.99.57-4.14,1.71l-31.23,41.11c-2.28,2.28-2.28,5.99,0,8.27l8.21,8.21-1.27,1.27c-5.68,5.68-5.68,14.88,0,20.55l2.28,2.28c-35.24,45.12-60.42,97.91-71.23,154.05-.46,2.39,1.45,4.08,3.41,4.08,1.01,0,2.02-.44,2.74-1.46,22.92-32.46,60.56-75.83,102.69-119.91l.46.46c2.84,2.84,6.56,4.26,10.28,4.26s7.44-1.42,10.28-4.26l1-1,219.72,210.49c1.99,1.9,4.55,2.85,7.1,2.85s5.26-1.01,7.27-3.01l20.35-20.35c3.95-3.95,4.02-10.33.16-14.37l-210.49-219.71,1-1c5.68-5.68,5.68-14.88,0-20.55l-.46-.46c44.08-42.14,87.45-79.78,119.91-102.69,2.81-1.98,1.25-6.23-1.91-6.23h0Z"/>
  </g>
  <g>
    <line class="cls-3" x1="208.5" y1="279.96" x2="156.55" y2="231.5"/>
    <path class="cls-4" d="m214.78,273.23c3.72,3.47,3.92,9.3.45,13.02s-9.3,3.92-13.02.45c-3.72-3.47-3.92-9.3-.45-13.02s9.3-3.92,13.02-.45Z"/>
    <path class="cls-4" d="m162.83,224.76c-3.72-3.47-9.55-3.27-13.02.45-3.47,3.72-3.27,9.55.45,13.02,3.72,3.47,9.55,3.27,13.02-.45,3.47-3.72,3.27-9.55-.45-13.02Z"/>
  </g>
  <g>
    <polyline class="cls-3" points="244.6 444.56 197.21 400.34 137.27 397.33"/>
    <path class="cls-4" d="m250.88,437.82c3.72,3.47,3.92,9.3.45,13.02-3.47,3.72-9.3,3.92-13.02.45-3.72-3.47-3.92-9.3-.45-13.02,3.47-3.72,9.3-3.92,13.02-.45Z"/>
    <path class="cls-4" d="m137.73,388.13c-5.08-.26-9.41,3.66-9.66,8.74-.26,5.08,3.66,9.41,8.74,9.66,5.08.26,9.41-3.66,9.66-8.74.26-5.08-3.66-9.41-8.74-9.66Z"/>
  </g>
  <g>
    <line class="cls-3" x1="327.53" y1="432.27" x2="218.73" y2="329.26"/>
    <path class="cls-4" d="m333.86,425.59c3.69,3.5,3.85,9.33.36,13.02-3.5,3.69-9.33,3.85-13.02.36-3.69-3.5-3.85-9.33-.36-13.02,3.5-3.69,9.33-3.85,13.02-.36Z"/>
    <path class="cls-4" d="m225.06,322.57c-3.69-3.5-9.53-3.34-13.02.36-3.5,3.69-3.34,9.52.36,13.02,3.69,3.5,9.52,3.34,13.02-.36,3.5-3.69,3.34-9.53-.36-13.02Z"/>
  </g>
  <g>
    <polyline class="cls-3" points="71.66 320.8 86.47 336.47 184.54 341.38"/>
    <path class="cls-4" d="m64.97,327.12c-3.49-3.7-3.33-9.53.37-13.02s9.53-3.33,13.02.37c3.49,3.7,3.33,9.53-.37,13.02s-9.53,3.33-13.02-.37Z"/>
    <path class="cls-4" d="m184.08,350.58c5.08.25,9.41-3.66,9.66-8.74.25-5.08-3.66-9.41-8.74-9.66-5.08-.25-9.41,3.66-9.66,8.74-.25,5.08,3.66,9.41,8.74,9.66Z"/>
  </g>
  <g>
    <polyline class="cls-3" points="351.9 415.77 235.19 305.35 183.46 299.78 133.25 252.93"/>
    <path class="cls-4" d="m358.23,409.07c3.7,3.5,3.86,9.33.36,13.02-3.5,3.69-9.33,3.86-13.02.36-3.69-3.5-3.86-9.33-.36-13.02s9.33-3.86,13.02-.36Z"/>
    <path class="cls-4" d="m139.53,246.19c-3.72-3.47-9.55-3.27-13.02.45s-3.27,9.55.45,13.02,9.55,3.27,13.02-.45c3.47-3.72,3.27-9.55-.45-13.02Z"/>
  </g>
  <g>
    <line class="cls-3" x1="213.28" y1="370.23" x2="100.35" y2="365.51"/>
    <path class="cls-4" d="m213.66,361.02c5.08.21,9.03,4.51,8.82,9.59-.21,5.08-4.51,9.03-9.59,8.82-5.08-.21-9.03-4.51-8.82-9.59.21-5.08,4.51-9.03,9.59-8.82Z"/>
    <path class="cls-4" d="m100.74,356.31c-5.08-.21-9.38,3.74-9.59,8.82-.21,5.08,3.74,9.38,8.82,9.59,5.08.21,9.38-3.74,9.59-8.82s-3.74-9.38-8.82-9.59Z"/>
  </g>
  <g>
    <line class="cls-3" x1="289.92" y1="439.71" x2="238.76" y2="391.98"/>
    <path class="cls-4" d="m296.21,432.98c3.72,3.47,3.92,9.3.45,13.02s-9.3,3.92-13.02.45c-3.72-3.47-3.92-9.3-.45-13.02s9.3-3.92,13.02-.45Z"/>
    <path class="cls-4" d="m245.05,385.24c-3.72-3.47-9.55-3.27-13.02.45-3.47,3.72-3.27,9.55.45,13.02,3.72,3.47,9.55,3.27,13.02-.45,3.47-3.72,3.27-9.55-.45-13.02Z"/>
  </g>
  <g>
    <polyline class="cls-3" points="158.16 310.91 118.22 273.76 90.52 299.84"/>
    <path class="cls-4" d="m164.43,304.16c3.72,3.46,3.94,9.29.47,13.02-3.46,3.72-9.29,3.94-13.02.47-3.72-3.46-3.94-9.29-.47-13.02,3.46-3.72,9.29-3.94,13.02-.47Z"/>
    <path class="cls-4" d="m84.21,293.13c-3.7,3.49-3.88,9.32-.39,13.02,3.49,3.7,9.32,3.88,13.02.39,3.7-3.49,3.88-9.32.39-13.02s-9.32-3.88-13.02-.39Z"/>
  </g>
  <path class="cls-1" d="m376.36,316.88c18.18-14.27,29.86-36.47,27.62-61.16-3.4-37.49-36.54-65.13-74.03-61.73-19.53,1.77-35.03,12.78-47.57,25.92l-56.26-58.06c6.46-6.19,7.07-6.78,13.54-12.97l41,17.04c5.55-2.69,8.27-4,13.82-6.69l11.84-42.61c8.89-1.24,9.73-1.35,18.61-2.59l23.07,37.75c6.07,1.07,9.05,1.59,15.13,2.66l34.76-27.58c7.91,4.19,8.66,4.59,16.58,8.78l-3.67,44.05c4.28,4.41,6.38,6.58,10.66,11l44.4-2.02c3.92,8.02,4.29,8.78,8.21,16.8l-29,33.52c.85,6.07,1.27,9.06,2.11,15.13l37.09,24.32c-1.57,8.78-1.72,9.62-3.29,18.4l-43.26,10.19c-2.9,5.41-4.33,8.07-7.23,13.49l15.61,41.37c-6.46,6.19-7.08,6.78-13.54,12.97l-56.18-57.97Z"/>
  <polygon class="cls-1" points="329.21 233.85 311.92 250.2 346.27 286.18 363.56 269.83 356.77 241.93 329.21 233.85"/>
  <text class="cls-6" transform="translate(520.26 233.05)"><tspan class="cls-7" x="0" y="0">GOLD </tspan><tspan class="cls-10" x="552.3" y="0">R</tspan><tspan class="cls-8" x="674.09" y="0">USH</tspan><tspan class="cls-10" x="0" y="160">R</tspan><tspan class="cls-8" x="121.8" y="160">OB</tspan><tspan class="cls-9" x="389.37" y="160">O</tspan><tspan class="cls-8" x="528.15" y="160">TICS</tspan></text>
</svg>