<?xml version="1.0" encoding="UTF-8" standalone="no"?>
<!-- Created with Inkscape (http://www.inkscape.org/) -->

<svg
   width="158.5mm"
   height="45.5mm"
   viewBox="0 0 158.5 45.5"
   version="1.1"
   id="svg1"
   inkscape:version="1.4.2 (f4327f4, 2025-05-13)"
   sodipodi:docname="49er Robotics (Black).svg"
   xmlns:inkscape="http://www.inkscape.org/namespaces/inkscape"
   xmlns:sodipodi="http://sodipodi.sourceforge.net/DTD/sodipodi-0.dtd"
   xmlns="http://www.w3.org/2000/svg"
   xmlns:svg="http://www.w3.org/2000/svg">
  <sodipodi:namedview
     id="namedview1"
     pagecolor="#ffffff"
     bordercolor="#000000"
     borderopacity="0.25"
     inkscape:showpageshadow="2"
     inkscape:pageopacity="0.0"
     inkscape:pagecheckerboard="0"
     inkscape:deskcolor="#d1d1d1"
     inkscape:document-units="mm"
     inkscape:zoom="1.4142136"
     inkscape:cx="222.73864"
     inkscape:cy="78.842406"
     inkscape:window-width="1920"
     inkscape:window-height="1009"
     inkscape:window-x="311"
     inkscape:window-y="-8"
     inkscape:window-maximized="1"
     inkscape:current-layer="layer1"
     showguides="true">
    <sodipodi:guide
       position="40.286886,29.496746"
       orientation="1,0"
       id="guide36"
       inkscape:locked="false" />
  </sodipodi:namedview>
  <defs
     id="defs1">
    <inkscape:path-effect
       effect="fillet_chamfer"
       id="path-effect46"
       is_visible="true"
       lpeversion="1"
       nodesatellites_param="F,0,0,1,0,0,0,1 @ F,0,0,1,0,0,0,1 @ F,0,0,1,0,0,0,1 @ F,0,0,1,0,0,0,1 @ F,0,0,1,0,0,0,1 @ F,0,0,1,0,0,0,1 @ F,0,0,1,0,0,0,1 @ F,0,0,1,0,0,0,1 @ F,0,0,1,0,0,0,1 @ F,0,0,1,0,0,0,1 @ F,0,0,1,0,0,0,1 @ F,0,0,1,0,0,0,1 @ F,0,0,1,0,0,0,1 | F,0,0,1,0,0,0,1 @ F,0,0,1,0,0,0,1 @ F,0,0,1,0,0,0,1 @ F,0,0,1,0,0,0,1 @ F,0,0,1,0,0,0,1 @ F,0,0,1,0,0,0,1 @ F,0,0,1,0,0,0,1 @ F,0,0,1,0,0,0,1 @ F,0,0,1,0,0,0,1 @ F,0,0,1,0,0,0,1 @ F,0,0,1,0,0,0,1 @ F,0,0,1,0,0,0,1 @ F,0,0,1,0,0,0,1 @ F,0,0,1,0,0,0,1 @ F,0,0,1,0,0,0,1 @ F,0,0,1,0,0,0,1 @ F,0,0,1,0,0,0,1 @ F,0,0,1,0,0,0,1 @ F,0,0,1,0,0,0,1 @ F,0,0,1,0,0,0,1 @ F,0,0,1,0,0,0,1 @ F,0,0,1,0,0,0,1 @ F,0,0,1,0,0,0,1 @ F,0,0,1,0,0,0,1 @ F,0,0,1,0,0,0,1 @ F,0,0,1,0,0,0,1 @ F,0,0,1,0,0,0,1 @ F,0,0,1,0,0,0,1 @ F,0,0,1,0,0,0,1 @ F,0,0,1,0,0,0,1 @ F,0,0,1,0,0,0,1 @ F,0,0,1,0,0,0,1 @ F,0,0,1,0,0,0,1 @ F,0,0,1,0,0,0,1 @ F,0,0,1,0,0,0,1 @ F,0,0,1,0,0,0,1 @ F,0,0,1,0,0,0,1 @ F,0,0,1,0,0,0,1 @ F,0,0,1,0,0,0,1 @ F,0,0,1,0,0,0,1 @ F,0,0,1,0,0,0,1 @ F,0,0,1,0,0,0,1 @ F,0,0,1,0,0,0,1 @ F,0,0,1,0,0,0,1 @ F,0,0,1,0,0,0,1 @ F,0,0,1,0,0,0,1 @ F,0,0,1,0,0,0,1 @ F,0,0,1,0,0,0,1 @ F,0,0,1,0,0,0,1 @ F,0,0,1,0,0,0,1 @ F,0,0,1,0,0,0,1 @ F,0,0,1,0,0,0,1 @ F,0,0,1,0,0,0,1 @ F,0,0,1,0,0,0,1 @ F,0,0,1,0,0,0,1 @ F,0,0,1,0,0,0,1 @ F,0,0,1,0,0,0,1 @ F,0,0,1,0,0,0,1 @ F,0,0,1,0,0,0,1 @ F,0,0,1,0,0,0,1 @ F,0,0,1,0,0,0,1 @ F,0,0,1,0,0,0,1 @ F,0,0,1,0,0,0,1 @ F,0,0,1,0,0,0,1 @ F,0,0,1,0,0,0,1 @ F,0,0,1,0,0,0,1 @ F,0,0,1,0,0,0,1 @ F,0,0,1,0,0,0,1 @ F,0,0,1,0,0,0,1 @ F,0,0,1,0,0,0,1 @ F,0,0,1,0,0,0,1 @ F,0,0,1,0,0,0,1 @ F,0,0,1,0,0,0,1 @ F,0,0,1,0,0,0,1 @ F,0,0,1,0,0,0,1 @ F,0,0,1,0,0,0,1 @ F,0,0,1,0,0,0,1 @ F,0,0,1,0,0,0,1 @ F,0,0,1,0,0,0,1 @ F,0,0,1,0,0,0,1 @ F,0,0,1,0,0,0,1 @ F,0,0,1,0,0,0,1 @ F,0,0,1,0,0,0,1 @ F,0,0,1,0,0,0,1 @ F,0,0,1,0,0,0,1 @ F,0,0,1,0,0,0,1 @ F,0,0,1,0,0,0,1 @ F,0,0,1,0,0,0,1 @ F,0,0,1,0,0,0,1 @ F,0,0,1,0,0,0,1 @ F,0,0,1,0,0.33451749,0,1 @ F,0,0,1,0,0,0,1 @ F,0,0,1,0,0,0,1 @ F,0,0,1,0,0.21656009,0,1 @ F,0,0,1,0,0,0,1 @ F,0,0,1,0,0,0,1 @ F,0,0,1,0,0,0,1 @ F,0,0,1,0,0,0,1 @ F,0,0,1,0,0,0,1 @ F,0,0,1,0,0,0,1 @ F,0,0,1,0,0,0,1 @ F,0,0,1,0,0,0,1 @ F,0,0,1,0,0,0,1 @ F,0,0,1,0,0,0,1 @ F,0,0,1,0,0,0,1 @ F,0,0,1,0,0,0,1 @ F,0,0,1,0,0,0,1 @ F,0,0,1,0,0,0,1 @ F,0,0,1,0,0,0,1 @ F,0,0,1,0,0,0,1 @ F,0,0,1,0,0,0,1 @ F,0,0,1,0,0,0,1 @ F,0,0,1,0,0,0,1 @ F,0,0,1,0,0,0,1 @ F,0,0,1,0,0,0,1 @ F,0,0,1,0,0,0,1 @ F,0,0,1,0,0,0,1 @ F,0,0,1,0,0,0,1 @ F,0,0,1,0,0,0,1 @ F,0,0,1,0,0,0,1 @ F,0,0,1,0,0,0,1 @ F,0,0,1,0,0,0,1 @ F,0,0,1,0,0,0,1 @ F,0,0,1,0,0,0,1 @ F,0,0,1,0,0,0,1 @ F,0,0,1,0,0,0,1 @ F,0,0,1,0,0,0,1 @ F,0,0,1,0,0,0,1 @ F,0,0,1,0,0,0,1 @ F,0,0,1,0,0,0,1 @ F,0,0,1,0,0,0,1 @ F,0,0,1,0,0,0,1 @ F,0,0,1,0,0,0,1 @ F,0,0,1,0,0,0,1 @ F,0,0,1,0,0,0,1 @ F,0,0,1,0,0,0,1 @ F,0,0,1,0,0,0,1 @ F,0,0,1,0,0,0,1 @ F,0,0,1,0,0,0,1 @ F,0,0,1,0,0,0,1 @ F,0,0,1,0,0,0,1 @ F,0,0,1,0,0,0,1 @ F,0,0,1,0,0,0,1 @ F,0,0,1,0,0,0,1 @ F,0,0,1,0,0,0,1 @ F,0,0,1,0,0,0,1 @ F,0,0,1,0,0,0,1 @ F,0,0,1,0,0,0,1 @ F,0,0,1,0,0,0,1 @ F,0,0,1,0,0,0,1 @ F,0,0,1,0,0,0,1 @ F,0,0,1,0,0,0,1 @ F,0,0,1,0,0,0,1 @ F,0,0,1,0,0,0,1 @ F,0,0,1,0,0,0,1 @ F,0,0,1,0,0,0,1 @ F,0,0,1,0,0,0,1 @ F,0,0,1,0,0,0,1 @ F,0,0,1,0,0,0,1 @ F,0,0,1,0,0,0,1 @ F,0,0,1,0,0,0,1 @ F,0,0,1,0,0,0,1 @ F,0,0,1,0,0,0,1 @ F,0,0,1,0,0,0,1 @ F,0,0,1,0,0,0,1 @ F,0,0,1,0,0,0,1 @ F,0,0,1,0,0,0,1 @ F,0,0,1,0,0,0,1 @ F,0,0,1,0,0,0,1 @ F,0,0,1,0,0,0,1 @ F,0,0,1,0,0,0,1 @ F,0,0,1,0,0,0,1 @ F,0,0,1,0,0,0,1 @ F,0,0,1,0,0,0,1 @ F,0,0,1,0,0,0,1 @ F,0,0,1,0,0,0,1 @ F,0,0,1,0,0,0,1 @ F,0,0,1,0,0,0,1 @ F,0,0,1,0,0,0,1 @ F,0,0,1,0,0.4550207,0,1 @ F,0,0,1,0,0.3762497,0,1 @ F,0,0,1,0,0,0,1 @ F,0,0,1,0,0,0,1 @ F,0,0,1,0,0,0,1 @ F,0,0,1,0,0,0,1 @ F,0,0,1,0,0,0,1 @ F,0,0,1,0,0,0,1 @ F,0,0,1,0,0.3248495,0,1 @ F,0,0,1,0,0.26727573,0,1 @ F,0,0,1,0,0,0,1 @ F,0,0,1,0,0,0,1 @ F,0,0,1,0,0,0,1 @ F,0,0,1,0,0,0,1 @ F,0,0,1,0,0,0,1 @ F,0,0,1,0,0,0,1 @ F,0,0,1,0,0,0,1 @ F,0,0,1,0,0,0,1 @ F,0,0,1,0,0,0,1 @ F,0,0,1,0,0,0,1 @ F,0,0,1,0,0,0,1 @ F,0,0,1,0,0,0,1 @ F,0,0,1,0,0,0,1 @ F,0,0,1,0,0,0,1 @ F,0,0,1,0,0,0,1 @ F,0,0,1,0,0,0,1 @ F,0,0,1,0,0,0,1 @ F,0,0,1,0,0,0,1 @ F,0,0,1,0,0,0,1 @ F,0,0,1,0,0,0,1 @ F,0,0,1,0,0,0,1 @ F,0,0,1,0,0,0,1 @ F,0,0,1,0,0,0,1 @ F,0,0,1,0,0,0,1 @ F,0,0,1,0,0,0,1 @ F,0,0,1,0,0,0,1 @ F,0,0,1,0,0,0,1 @ F,0,0,1,0,0,0,1 @ F,0,0,1,0,0,0,1 @ F,0,0,1,0,0,0,1 @ F,0,0,1,0,0,0,1 @ F,0,0,1,0,0,0,1 @ F,0,0,1,0,0,0,1 @ F,0,0,1,0,0,0,1 @ F,0,0,1,0,0,0,1 @ F,0,0,1,0,0,0,1 @ F,0,0,1,0,0,0,1 @ F,0,0,1,0,0,0,1 @ F,0,0,1,0,0,0,1 @ F,0,0,1,0,0.39914606,0,1 @ F,0,0,1,0,0.65016156,0,1 @ F,0,0,1,0,0.28467542,0,1 @ F,0,0,1,0,0,0,1 @ F,0,0,1,0,0,0,1 @ F,0,0,1,0,0,0,1 @ F,0,0,1,0,0,0,1 @ F,0,0,1,0,0,0,1 @ F,0,0,1,0,0,0,1 @ F,0,0,1,0,0.425453,0,1 @ F,0,0,1,0,0.44106082,0,1 @ F,0,0,1,0,0.54437116,0,1 @ F,0,0,1,0,0,0,1 @ F,0,0,1,0,0,0,1 @ F,0,0,1,0,0,0,1 @ F,0,0,1,0,0,0,1 @ F,0,0,1,0,0,0,1 @ F,0,0,1,0,0,0,1 @ F,0,0,1,0,0,0,1 @ F,0,0,1,0,0,0,1 @ F,0,0,1,0,0,0,1 @ F,0,0,1,0,0,0,1 @ F,0,0,1,0,0,0,1 @ F,0,0,1,0,0,0,1 @ F,0,0,1,0,0,0,1 @ F,0,0,1,0,0,0,1 @ F,0,0,1,0,0,0,1 @ F,0,0,1,0,0,0,1 @ F,0,0,1,0,0,0,1 @ F,0,0,1,0,0,0,1 @ F,0,0,1,0,0,0,1 @ F,0,0,1,0,0,0,1 @ F,0,0,1,0,0,0,1 @ F,0,0,1,0,0,0,1 @ F,0,0,1,0,0,0,1 @ F,0,0,1,0,0,0,1 @ F,0,0,1,0,0,0,1 @ F,0,0,1,0,0,0,1 @ F,0,0,1,0,0,0,1 @ F,0,0,1,0,0,0,1 @ F,0,0,1,0,0,0,1 @ F,0,0,1,0,0,0,1 @ F,0,0,1,0,0,0,1 @ F,0,0,1,0,0,0,1 @ F,0,0,1,0,0,0,1 @ F,0,0,1,0,0,0,1 @ F,0,0,1,0,0,0,1 @ F,0,0,1,0,0,0,1 @ F,0,0,1,0,0,0,1 @ F,0,0,1,0,0,0,1 @ F,0,0,1,0,0,0,1"
       radius="0"
       unit="px"
       method="auto"
       mode="F"
       chamfer_steps="1"
       flexible="false"
       use_knot_distance="true"
       apply_no_radius="true"
       apply_with_radius="true"
       only_selected="false"
       hide_knots="false" />
    <rect
       x="141.5"
       y="135.75"
       width="293.75201"
       height="125.95679"
       id="rect29" />
  </defs>
  <g
     inkscape:label="Layer 1"
     inkscape:groupmode="layer"
     id="layer1">
    <path
       d="m 51.263971,23.195137 h 0.04453 L 55.182766,4.8257796 H 51.085844 L 49.326838,13.108689 H 45.007254 L 46.788525,4.8257796 H 42.669337 L 40.286886,16.003254 h 8.438771 l -0.801569,3.740671 c -0.133598,0.667976 -0.02227,1.046496 0.467583,1.402751 z M 59.905694,4.8257796 c -1.536348,0 -2.471515,0.7125096 -2.760971,2.0484614 l -0.311725,1.4695492 c -0.311721,1.4695492 0,2.2711188 1.09103,3.0504268 l 5.655535,4.030125 c 0.200393,0.133597 0.244926,0.311724 0.178128,0.60118 l -0.178128,0.823839 h -4.297315 l 0.222658,-1.09103 c 0.133597,-0.623446 0,-1.02423 -0.489849,-1.35822 l -2.649642,-1.892599 h -0.04453 l -1.536348,7.236413 h 9.952854 c 1.55861,0 2.471512,-0.667975 2.760968,-1.981666 L 70.25933,4.8257796 Z m 1.202355,4.1859865 C 60.907656,8.8559074 60.840861,8.72231 60.907656,8.4551189 l 0.155862,-0.7347746 h 4.475443 L 64.715123,11.59461 Z M 86.003891,4.8257796 H 72.755687 L 69.571666,19.743925 H 82.8644 l 0.71251,-3.362148 c 0.133593,-0.623446 0,-1.024231 -0.489853,-1.35822 l -2.649638,-1.892599 h -0.04453 l -0.80157,3.718403 h -5.29928 l 0.69024,-3.228555 h 2.805502 c 0.623445,0 0.868371,-0.178127 1.001965,-0.779308 l 0.400785,-1.892599 h -3.651604 l 0.690241,-3.2285547 h 5.277016 l -0.37852,1.7812704 c -0.133594,0.6457113 0,1.0464993 0.489848,1.3804853 l 2.649643,1.892603 h 0.04453 z M 89.01234,19.743925 91.572918,7.7203443 h 5.855928 l -0.823838,3.8520007 c -0.08906,0.400785 -0.289456,0.556647 -0.801573,0.556647 h -4.542238 l -0.155862,0.779305 3.406682,6.835628 h 4.386378 l -2.493779,-4.720368 h 0.623445 c 1.981663,0 3.139489,-0.957432 3.562539,-2.894565 l 1.55862,-7.3032124 H 88.077172 L 84.915417,19.743925 Z"
       id="path5"
       style="font-size:61.7824px;line-height:0.9;font-family:Rushblade;-inkscape-font-specification:Rushblade;letter-spacing:-0.24px;white-space:pre;fill:#000000;stroke:none;stroke-width:4.38305;stroke-linejoin:round;paint-order:stroke fill markers" />
    <path
       d="m 44.467661,39.783221 2.560575,-12.023577 h 5.855928 l -0.823838,3.851997 c -0.08906,0.400788 -0.289457,0.556647 -0.80157,0.556647 h -4.542242 l -0.155862,0.779308 3.406682,6.835625 h 4.386379 l -2.49378,-4.720365 h 0.623446 c 1.981663,0 3.139491,-0.957436 3.562541,-2.894568 l 1.558613,-7.303209 H 43.532494 l -3.161756,14.918142 z m 23.248147,0 c 1.981667,0 3.161756,-0.957432 3.562545,-2.894564 l 2.53831,-12.023578 H 62.705984 c -1.981663,0 -3.161756,0.957432 -3.562541,2.894565 l -2.560575,12.023577 z m -6.412575,-2.894564 1.803539,-8.505567 c 0.08906,-0.445319 0.333986,-0.623446 0.80157,-0.623446 h 5.187952 l -1.803535,8.50557 c -0.08906,0.42305 -0.311722,0.623443 -0.801574,0.623443 z m 25.25209,-4.853963 c 1.180089,-0.08906 1.759005,-0.623446 2.003928,-1.825804 L 89.69481,24.865079 H 76.223948 l -3.161755,14.918142 h 11.845453 c 1.447284,0 2.382451,-0.757039 2.694173,-2.182055 l 0.667976,-3.117226 c 0.267191,-1.269153 -0.445319,-2.293384 -1.714472,-2.404716 z m -7.459075,-1.291422 0.623446,-2.983628 h 5.254751 l -0.489852,2.315652 c -0.08906,0.445319 -0.333986,0.667976 -0.80157,0.667976 z m -1.313687,6.145385 0.734775,-3.473477 h 5.187952 c 0.400785,0 0.623446,0.244926 0.534382,0.64571 l -0.467583,2.204324 c -0.08906,0.42305 -0.311725,0.623443 -0.801573,0.623443 z m 22.646959,2.894564 c 1.98167,0 3.16176,-0.957432 3.56255,-2.894564 l 2.53831,-12.023578 H 95.4197 c -1.981663,0 -3.161756,0.957432 -3.562545,2.894565 L 89.29658,39.783221 Z m -6.412571,-2.894564 1.803536,-8.505567 c 0.08906,-0.445319 0.333989,-0.623446 0.801573,-0.623446 h 5.187952 l -1.80354,8.50557 c -0.08906,0.42305 -0.31172,0.623443 -0.801569,0.623443 z m 18.082471,-9.129013 -2.53831,12.023577 h 4.09692 l 2.53832,-12.023577 h 3.5848 c 0.69025,0 1.0465,-0.267191 1.15783,-0.801574 l 0.44531,-2.092991 h -12.24623 c -0.69024,0 -1.0465,0.267191 -1.15783,0.80157 l -0.44532,2.092995 z m 14.98752,-2.894565 h -4.09693 l -3.16175,14.918142 h 4.09692 z m 11.18004,4.297315 c -0.13359,0.623446 0,1.024231 0.48985,1.358221 l 2.64965,1.892599 h 0.0445 l 1.60314,-7.548135 h -10.64309 c -1.98167,0 -3.13949,0.957432 -3.56255,2.894565 l -2.56057,12.023577 h 13.62672 l 0.77931,-3.673869 c 0.13359,-0.623446 0,-1.024231 -0.48985,-1.358221 l -2.64964,-1.892599 h -0.0445 l -0.86838,4.030125 h -5.63326 l 1.80353,-8.505567 c 0.0891,-0.445319 0.33399,-0.623446 0.80157,-0.623446 h 4.94303 z m 14.56448,10.620827 c 1.53635,0 2.47151,-0.712506 2.76097,-2.048461 l 0.31172,-1.469546 c 0.31172,-1.469549 0,-2.248857 -1.09103,-3.028162 L 148.69,28.872938 c -0.20039,-0.133594 -0.24492,-0.311721 -0.17812,-0.601181 l 0.11133,-0.512113 h 4.8317 l -0.22267,1.091029 c -0.13359,0.623442 0,1.024231 0.48986,1.358217 l 2.64964,1.892603 h 0.0445 l 1.53634,-7.236414 h -10.48723 c -1.53634,0 -2.47151,0.712506 -2.76097,2.048461 l -0.31172,1.46955 c -0.28946,1.335951 0.0223,2.20432 1.02423,2.916829 l 6.18992,4.408648 c 0.20039,0.155859 0.26719,0.289456 0.20039,0.556647 l -0.13359,0.623443 h -5.21023 l 0.22267,-1.091026 c 0.13359,-0.623446 0,-1.024231 -0.48985,-1.358221 l -2.64965,-1.892599 h -0.0445 l -1.53634,7.214145 -0.0223,0.02227 z"
       id="path6"
       style="font-size:61.7824px;line-height:0.9;font-family:Rushblade;-inkscape-font-specification:Rushblade;letter-spacing:-0.24px;white-space:pre;fill:#000000;stroke:none;stroke-width:4.38305;stroke-linejoin:round;paint-order:stroke fill markers" />
    <path
       id="path52"
       style="fill:#000000;stroke:#000000;stroke-width:0.242518;stroke-linecap:round;stroke-linejoin:round;paint-order:stroke fill markers;stroke-opacity:1"
       d="m 158.16412,1.2588085 -0.81457,0.9000993 H 27.919559 L 27.104983,1.2588085 27.919559,0.35870783 H 157.34955 Z"
       sodipodi:nodetypes="ccccccc"
       inkscape:export-filename=".\path52.png"
       inkscape:export-xdpi="1200"
       inkscape:export-ydpi="1200" />
    <path
       id="path52-2"
       style="fill:#000000;stroke:#000000;stroke-width:0.242857;stroke-linecap:round;stroke-linejoin:round;paint-order:stroke fill markers;stroke-opacity:1"
       d="m 158.01407,44.178679 -0.81281,0.904608 H 28.053986 l -0.812797,-0.904608 0.812797,-0.904612 H 157.20126 Z"
       sodipodi:nodetypes="ccccccc" />
    <path
       id="path13-1-4-9-3-2-0"
       style="display:inline;fill:#000000;fill-opacity:1;stroke-width:0.817267;stroke-linejoin:round;stroke-dasharray:none;paint-order:stroke markers fill"
       inkscape:transform-center-x="-1.0857834"
       inkscape:transform-center-y="0.00294169"
       d="m 17.905466,16.865087 -3.431177,2.079783 -0.08558,-4.011377 1.758368,0.965797 z"
       sodipodi:nodetypes="ccccc" />
    <path
       id="path22-3-5-1"
       style="baseline-shift:baseline;display:inline;overflow:visible;opacity:1;vector-effect:none;fill:#000000;stroke-linecap:round;paint-order:stroke fill markers;enable-background:accumulate;stop-color:#000000;stop-opacity:1"
       d="m 11.687142,10.663949 -1.8784387,3.379121 -1.8655189,0.0739 1.4143839,2.426208 -2.8008626,0.06821 1.4097331,2.447396 -2.7925944,0.116789 1.4081827,2.414323 -0.9611816,0.05478 -0.5193481,0.943095 v 1.693436 l 1.0175089,-1.845882 1.839681,-0.103353 -1.3962972,-2.396236 2.7889771,-0.115238 -1.4004314,-2.426209 2.8106812,-0.06821 -1.4257528,-2.445329 0.9647988,-0.03876 1.706872,-3.072681 c 1.796565,0.975443 3.140075,1.747081 4.934066,2.726966 0.198454,0.108099 0.446766,0.03484 0.554488,-0.163815 0.108098,-0.198453 0.03432,-0.447281 -0.164331,-0.555004 -1.91263,-1.044686 -3.373841,-1.880679 -5.289083,-2.920236 z" />
    <path
       style="baseline-shift:baseline;display:inline;overflow:visible;opacity:1;vector-effect:none;fill:#000000;fill-rule:evenodd;stroke-linecap:round;stroke-linejoin:round;enable-background:accumulate;stop-color:#000000;stop-opacity:1"
       d="m 13.59388,17.378906 a 0.4086335,0.4086335 0 0 0 -0.554688,0.160156 0.4086335,0.4086335 0 0 0 0.160157,0.554688 l 2.660156,1.470703 a 0.4086335,0.4086335 0 0 0 0.554687,-0.158203 0.4086335,0.4086335 0 0 0 -0.160156,-0.556641 z"
       id="path9690-3" />
    <path
       id="path1530-7-8-2-8-4-4-0"
       style="baseline-shift:baseline;display:inline;overflow:visible;opacity:1;vector-effect:none;fill:#000000;fill-rule:evenodd;stroke-linecap:round;stroke-linejoin:round;enable-background:accumulate;stop-color:#000000;stop-opacity:1"
       inkscape:label="path1530-7-8-2-8-4-4-0"
       d="m 22.677685,3.6643758 c -0.145711,0.00296 -0.278818,0.083293 -0.349332,0.2108399 l -0.56379,1.0226766 c 0.161205,-0.068191 0.41671,-0.090625 0.576192,-0.047026 0.16996,0.046467 0.236939,0.096906 0.293005,0.1276408 0.0047,0.00258 0.0094,0.00528 0.01395,0.00775 l 0.395325,-0.7167522 c 0.108575,-0.197389 0.03692,-0.4454157 -0.160197,-0.5544881 -0.06276,-0.034577 -0.133513,-0.052042 -0.205156,-0.050643 z m -1.036629,3.1476115 c -0.04066,0.021346 -0.105016,0.041555 -0.125057,0.065112 l 0.01137,0.1415934 z M 20.622514,6.9680501 20.51761,7.1582194 19.857702,8.3555623 c 0.255856,0.1055187 0.510096,0.211686 0.757577,0.3167766 l 0.617533,-1.1198283 0.09715,-0.1762167 z m -1.437122,2.6075928 -0.478007,0.8676471 -1.810742,3.285071 -1.810742,3.283521 -2.540931,4.564062 c -0.18405,-0.07089 -0.298468,-0.139552 -0.659908,-0.191203 -0.281803,-0.04027 -0.596431,-0.05024 -0.912089,0.04082 -0.315658,0.09105 -0.633251,0.308499 -0.816487,0.658357 -0.1823477,0.348156 -0.1808437,0.73219 -0.07441,1.039213 0.05936,0.171232 0.17463,0.28391 0.271818,0.419613 -0.17434,-0.0062 -0.340707,-0.03778 -0.5234827,0.0098 -0.314407,0.08183 -0.6366989,0.291726 -0.8206214,0.63717 -0.1833,0.344273 -0.1814174,0.72706 -0.075964,1.033012 0.058103,0.168574 0.172869,0.280911 0.2676839,0.415995 -0.1691859,-0.0043 -0.3309139,-0.03536 -0.5079793,0.01189 -0.3153026,0.08413 -0.6353125,0.297878 -0.8221721,0.644405 -0.1867822,0.346362 -0.1894671,0.729995 -0.0863,1.039213 0.059916,0.179585 0.1787582,0.301228 0.2795695,0.443384 -0.1804177,-0.0056 -0.3538921,-0.03774 -0.5431193,0.0155 -0.3172059,0.08924 -0.6369816,0.31025 -0.820105,0.664042 -0.1824685,0.352526 -0.1810938,0.739891 -0.074414,1.050582 0.10668,0.310692 0.2976499,0.558981 0.4940267,0.76171 0.2416977,0.249517 0.3510793,0.290821 0.5177979,0.398426 l -0.8238031,1.428194 0.7090006,0.409277 0.997436,-1.755306 c 0.1041514,-0.197002 0.031282,-0.441126 -0.1638143,-0.548804 0,0 -0.3634079,-0.205806 -0.6506063,-0.502295 -0.1435992,-0.148245 -0.2591609,-0.313101 -0.3085083,-0.456819 -0.049347,-0.143717 -0.051956,-0.253028 0.029456,-0.410311 0.080755,-0.156018 0.1675351,-0.210406 0.3141928,-0.251664 0.1466576,-0.04126 0.3526296,-0.04112 0.5606892,-0.0078 0.2080595,0.03336 0.4162317,0.09643 0.5720581,0.150379 0.077913,0.02698 0.1417734,0.05114 0.1937867,0.07028 0.026007,0.0096 0.04798,0.01602 0.078031,0.02532 0.015026,0.0046 0.028384,0.01092 0.068213,0.01757 0.00996,0.0017 0.021071,0.0028 0.037207,0.0041 0.016136,0.0013 0.065613,4.3e-5 0.066146,0 5.335e-4,-4.3e-5 0.1324738,-0.03138 0.1328085,-0.03152 1.673e-4,-7.3e-5 0.099619,-0.0645 0.099736,-0.0646 1.17e-4,-9.9e-5 0.0976,-0.118731 0.09767,-0.118856 6.7e-5,-1.25e-4 0.04702,-0.146609 0.04703,-0.146761 1.8e-5,-1.53e-4 -0.0041,-0.11661 -0.0041,-0.116789 -6.2e-5,-3.58e-4 -0.04471,-0.126658 -0.04496,-0.127124 -2.55e-4,-4.66e-4 -0.02668,-0.04397 -0.03669,-0.05684 -0.01001,-0.01287 -0.0189,-0.02148 -0.02584,-0.02894 -0.02775,-0.02982 -0.04049,-0.0391 -0.05271,-0.04909 -0.02445,-0.01998 -0.04187,-0.03234 -0.064079,-0.04858 -0.044422,-0.03247 -0.099357,-0.0721 -0.1643311,-0.12144 -0.1299915,-0.09857 -0.2950035,-0.235671 -0.4372243,-0.388499 -0.1422209,-0.152829 -0.2571309,-0.321423 -0.304891,-0.464572 -0.04776,-0.143149 -0.050832,-0.245925 0.029456,-0.394807 0.080196,-0.148721 0.16751,-0.203222 0.3141927,-0.242363 0.1466826,-0.03914 0.3522723,-0.03607 0.5586222,-0.0015 0.2063491,0.03456 0.4110201,0.09763 0.5643068,0.151928 0.07664,0.02715 0.139772,0.05124 0.189652,0.07028 0.02494,0.0095 0.04546,0.01839 0.07235,0.02739 0.01345,0.0045 0.02584,0.0087 0.06046,0.01602 0.01731,0.0037 0.09096,0.0098 0.09198,0.0098 5.1e-4,-6e-6 0.128361,-0.0216 0.128674,-0.0217 1.57e-4,-5.3e-5 0.111514,-0.05831 0.111621,-0.05839 1.05e-4,-7.8e-5 0.114839,-0.130525 0.116789,-0.132809 v -0.0021 c 0.0011,-0.0036 0.04908,-0.169885 0.04909,-0.170015 8e-6,-1.32e-4 -0.01185,-0.126965 -0.01189,-0.127124 -8.1e-5,-3.18e-4 -0.05244,-0.120497 -0.05271,-0.120923 -5.48e-4,-8.51e-4 -0.04779,-0.05985 -0.06046,-0.07235 -0.02533,-0.02498 -0.03585,-0.03209 -0.04703,-0.04083 -0.02238,-0.01747 -0.0388,-0.02948 -0.06046,-0.04496 -0.04331,-0.03096 -0.09904,-0.07073 -0.163814,-0.119373 -0.129554,-0.09727 -0.294941,-0.232739 -0.437699,-0.384472 -0.1427577,-0.151733 -0.2576607,-0.319425 -0.3064417,-0.460954 -0.04878,-0.141528 -0.05293,-0.239824 0.02325,-0.382922 0.07557,-0.14193 0.15784,-0.19234 0.3043737,-0.230477 0.146535,-0.03814 0.353494,-0.03653 0.562756,-0.0021 0.209263,0.0345 0.417888,0.09714 0.576193,0.150378 0.07915,0.02662 0.145329,0.05122 0.201021,0.07028 0.02785,0.0095 0.05001,0.0159 0.0863,0.02532 0.01814,0.0047 0.03681,0.01201 0.08578,0.01602 0.01224,0.001 0.02799,0.002 0.04703,0.0015 0.01904,-4.63e-4 0.07332,-0.0096 0.0739,-0.0098 5.74e-4,-1.19e-4 0.12468,-0.04629 0.125057,-0.04651 3.77e-4,-2.21e-4 0.154336,-0.159871 0.154513,-0.160197 1.76e-4,-3.26e-4 0.0486,-0.214546 0.04858,-0.214974 -2.2e-5,-4.28e-4 -0.03079,-0.136412 -0.03101,-0.136942 -2.17e-4,-5.29e-4 -0.02445,-0.05167 -0.03514,-0.06821 -0.01069,-0.01654 -0.01941,-0.02896 -0.02739,-0.03876 -0.03194,-0.03923 -0.04819,-0.05022 -0.06253,-0.06253 -0.02868,-0.02463 -0.04898,-0.03766 -0.07235,-0.05478 -0.04673,-0.03424 -0.102399,-0.07431 -0.167949,-0.12299 -0.131099,-0.09736 -0.296256,-0.230092 -0.439249,-0.379305 -0.142993,-0.149214 -0.258298,-0.314383 -0.306958,-0.454753 -0.04866,-0.140371 -0.0539,-0.241483 0.02532,-0.39274 0.07833,-0.14956 0.169388,-0.208106 0.320394,-0.251665 0.151005,-0.04356 0.360876,-0.04752 0.570508,-0.01757 0.419265,0.05992 0.804602,0.232028 0.804602,0.232028 0.193562,0.08892 0.422961,0.01425 0.5271,-0.171566 l 2.699576,-4.843632 c 2e-6,-6.89e-4 2e-6,-0.0014 0,-0.0021 l 1.810226,-3.285071 1.810742,-3.285588 0.521415,-0.9456783 C 19.695023,9.7867239 19.440252,9.6804403 19.185392,9.5756429 Z M 5.6254964,34.469731 l -0.031523,0.05943 c -0.1045894,0.199121 -0.028602,0.445328 0.1700154,0.55087 0.1989453,0.105956 0.4461157,0.03081 0.5524211,-0.167948 l 0.1627807,-0.306958 c -0.1812461,0.06214 -0.4426019,0.0543 -0.5911783,0 -0.1349647,-0.04933 -0.2038411,-0.09651 -0.2625163,-0.135392 z"
       sodipodi:nodetypes="cccssccccccccccccccccccccscssccsscccsccssscccccsssscscccsssssccssccscsssscscsccssccsscccccsssscsccsccsssssscccssssccccccccccccccscsc" />
    <path
       id="path7"
       style="baseline-shift:baseline;display:inline;overflow:visible;opacity:1;vector-effect:none;fill:#000000;stroke-width:0.532112;paint-order:stroke fill markers;enable-background:accumulate;stop-color:#000000;stop-opacity:1"
       d="m 19.389514,0.68109539 c -0.168859,-2.288e-5 -0.334915,0.044168 -0.481107,0.12867431 L 11.39672,5.1469729 c 0.04288,-0.00537 0.08584,-0.010807 0.128675,-0.01602 2.324297,-0.2828804 4.760817,-0.4058415 7.148401,-0.2092898 2.387582,0.1965516 4.725589,0.7122013 6.849711,1.7032555 0.0789,0.036814 0.144339,0.063469 0.232544,0.1033527 l 0.02325,-0.03669 a 0.69182416,0.69182416 0 0 1 0,-0.00207 c 0.161721,-0.2801506 0.236793,-0.4301626 0.388611,-0.607712 0.151817,-0.1775488 0.444498,-0.3128176 0.562756,-0.3472654 l 0.212907,-0.062529 a 0.69182416,0.69182416 0 0 1 0.538985,0.066146 l 1.242302,0.7167519 1.243851,0.716752 a 0.69182416,0.69182416 0 0 1 0.326596,0.4356323 l 0.05271,0.2149744 c 0.02934,0.1196279 0.05812,0.4396082 -0.01964,0.659908 -0.07776,0.2202998 -0.17073,0.360887 -0.332279,0.6407876 l -0.02119,0.03514 c 0.160025,0.1156189 0.309576,0.2248658 0.494026,0.3576007 0.885189,0.6370052 1.691817,1.3761442 2.443779,2.1729942 0.03076,0.02296 0.05422,0.04516 0.07028,0.0708 2.552702,2.73317 4.369519,6.241031 5.6441,9.592178 V 12.194607 C 38.62739,11.85084 38.443814,11.533266 38.145987,11.361583 L 19.870622,0.8097697 C 19.724429,0.72526443 19.558373,0.68107251 19.389514,0.68109539 Z M 17.56792,6.2595663 c 0.04192,0.039535 0.07017,0.064676 0.07906,0.07028 0.08721,0.055056 0.138525,0.047604 0.325561,-0.057877 -0.134707,-0.00589 -0.269584,-0.00967 -0.404626,-0.012402 z m -1.240234,0.011885 c -0.914022,0.032372 -1.831667,0.1087637 -2.745569,0.177767 0.329007,0.079437 0.649272,0.1499167 0.968933,0.219625 0.08676,-0.079048 0.234117,-0.1662478 0.334346,-0.1870688 0.114553,-0.023797 0.145886,-0.00775 0.531751,0.3787883 0.334537,0.076795 0.676465,0.1601887 1.035596,0.2594159 0.05236,-0.057164 0.06441,-0.1112381 0.04961,-0.1798342 -0.01004,-0.046555 -0.08049,-0.316967 -0.15658,-0.6015135 -0.0062,-0.0233 -0.01231,-0.045538 -0.01809,-0.06718 z M 8.968445,6.5489545 0.63303637,11.36158 c -0.2977418,0.171635 -0.48130349,0.489355 -0.48110767,0.833024 v 21.103105 c -1.9582e-4,0.343669 0.18336587,0.66139 0.48110767,0.833024 L 18.908407,44.682027 c 0.297541,0.172053 0.664157,0.172053 0.961698,0 L 38.145992,34.130733 c 0.297742,-0.171634 0.481304,-0.489355 0.481108,-0.833024 v -9.181868 c -0.04173,0.0029 -0.07579,0.0052 -0.07596,0.0052 -4.36e-4,-4e-5 -0.149867,-0.03084 -0.150378,-0.03101 -10e-4,-3.4e-4 -0.120983,-0.05343 -0.154513,-0.07441 -0.03353,-0.02097 -0.05629,-0.03798 -0.07441,-0.05271 -0.07247,-0.05891 -0.09225,-0.08615 -0.11679,-0.115238 -0.04908,-0.05818 -0.08293,-0.108699 -0.121439,-0.167948 -0.03495,-0.05376 -0.367205,-0.483275 -0.718819,-0.904338 -0.351615,-0.421063 -0.754677,-0.885042 -1.030945,-1.18339 -0.169795,-0.183364 -0.334566,-0.368657 -0.496094,-0.555005 -0.01237,0.01593 -0.02581,0.0279 -0.04031,0.03566 -0.02555,0.01367 -0.298342,0.09275 -0.606164,0.175183 -0.692041,0.18533 -0.679545,0.175781 -0.679545,0.485759 0,0.265289 0.03619,0.35673 0.157096,0.394808 0.04534,0.01428 0.310031,0.08561 0.587561,0.158646 0.642762,0.169145 0.652195,0.176861 0.639238,0.488343 -0.01266,0.304284 -0.0058,0.299715 -0.698666,0.482141 -0.400232,0.105387 -0.58181,0.164682 -0.624768,0.204122 -0.05584,0.05126 -0.06046,0.07415 -0.06046,0.298173 0,0.347813 -0.0099,0.340362 0.7028,0.528133 0.310223,0.08173 0.588299,0.168659 0.61805,0.192753 0.04848,0.03926 0.05426,0.06856 0.05426,0.284738 1.6e-5,0.208767 -0.0068,0.248163 -0.05116,0.292488 -0.03491,0.03491 -0.238938,0.102037 -0.641305,0.211357 -0.463122,0.12583 -0.60056,0.172982 -0.636653,0.217557 -0.03717,0.04592 -0.04599,0.101678 -0.04599,0.291972 0,0.341311 -0.01844,0.327507 0.694014,0.517281 0.371704,0.09901 0.598148,0.171794 0.629936,0.202572 0.06167,0.05971 0.08462,0.350399 0.03876,0.489376 -0.03938,0.119325 -0.06993,0.132409 -0.71882,0.304374 -0.365329,0.09682 -0.547082,0.156736 -0.586527,0.193787 -0.05107,0.04798 -0.05736,0.07745 -0.05736,0.277502 0,0.264948 0.03617,0.356438 0.157096,0.395325 0.04534,0.01458 0.315494,0.08899 0.599964,0.165364 0.639885,0.171805 0.63985,0.171958 0.626835,0.484725 -0.01256,0.301933 -0.0105,0.300117 -0.677478,0.476457 -0.298346,0.07888 -0.56499,0.155404 -0.592729,0.170016 -0.0952,0.05006 -0.111803,0.100307 -0.112654,0.339513 -0.0012,0.344386 -0.0048,0.341728 0.69298,0.525033 0.305284,0.08019 0.574532,0.15786 0.598413,0.172599 0.07315,0.04514 0.09748,0.154799 0.09147,0.355018 -0.01142,0.379821 -0.02562,0.747685 -0.02532,1.122412 7.8e-5,0.09827 -0.06751,0.218192 -0.152445,0.267684 -0.28169,0.164131 -0.553902,0.31917 -0.84336,0.478523 -0.0325,0.01789 -0.06521,0.03573 -0.09819,0.05374 -0.08855,0.04839 -0.178858,0.09749 -0.271818,0.147278 -0.0561,0.03005 -0.149325,0.0338 -0.195853,-0.0072 -0.09146,-0.08066 -0.236148,-0.228857 -0.387574,-0.381372 -0.518906,-0.522635 -0.493752,-0.511866 -0.799434,-0.33538 -0.172344,0.0995 -0.219659,0.136925 -0.239262,0.189136 -0.01843,0.0491 0.01401,0.210542 0.132292,0.657324 0.183297,0.692347 0.184216,0.679443 -0.04909,0.821138 -0.211445,0.128421 -0.236853,0.1384 -0.310058,0.118856 -0.05683,-0.01518 -0.565936,-0.495592 -0.715719,-0.675411 -0.210654,-0.252894 -0.281299,-0.266268 -0.558105,-0.106453 -0.296184,0.171001 -0.293915,0.150947 -0.108521,0.843359 0.08291,0.309672 0.151951,0.588914 0.152962,0.620117 0.0026,0.08029 -0.06162,0.148395 -0.22996,0.245463 -0.107078,0.06175 -0.171484,0.08387 -0.241846,0.08217 -0.04951,-0.0012 -0.09303,-0.0063 -0.100769,-0.01137 h -5.17e-4 v -5.17e-4 h -5.16e-4 c -0.01423,-0.02466 -0.779312,-0.785494 -0.831991,-0.827339 -0.0997,-0.07918 -0.167333,-0.06923 -0.380338,0.05374 -0.205049,0.118385 -0.252167,0.168357 -0.249081,0.264067 0.0011,0.03272 0.06947,0.310798 0.151929,0.61805 0.178814,0.666244 0.178443,0.673211 -0.05271,0.806669 -0.170499,0.09844 -0.295371,0.129324 -0.359668,0.0894 -0.02462,-0.01529 -0.228932,-0.212336 -0.454236,-0.437699 -0.506518,-0.50666 -0.492743,-0.500189 -0.761194,-0.345199 -0.229744,0.132644 -0.290511,0.210082 -0.263033,0.33383 0.0103,0.04641 0.08055,0.310695 0.156063,0.587561 0.174901,0.641225 0.173395,0.653365 -0.102836,0.797884 -0.269847,0.141181 -0.262485,0.144982 -0.766878,-0.363802 -0.291383,-0.293917 -0.433227,-0.42177 -0.488859,-0.43925 -0.07231,-0.02272 -0.09486,-0.01486 -0.288872,0.09715 -0.301214,0.173907 -0.299692,0.161677 -0.105936,0.872815 0.08433,0.309525 0.148618,0.593669 0.142627,0.631486 -0.0098,0.06161 -0.03293,0.08105 -0.220142,0.189136 -0.180793,0.104415 -0.218505,0.118026 -0.279053,0.101802 -0.04769,-0.01278 -0.207988,-0.155786 -0.503845,-0.449585 -0.340533,-0.338161 -0.449776,-0.433384 -0.506429,-0.44235 -0.05835,-0.0092 -0.111153,0.01131 -0.275952,0.106453 -0.295584,0.170655 -0.29265,0.147485 -0.100769,0.859379 0.100109,0.371409 0.150286,0.603552 0.139526,0.646472 -0.02087,0.08327 -0.261336,0.248765 -0.404626,0.278537 -0.123029,0.02556 -0.149327,0.0057 -0.622701,-0.470256 -0.26651,-0.267976 -0.409659,-0.395711 -0.461471,-0.411344 -0.06708,-0.02024 -0.09547,-0.01063 -0.268717,0.0894 -0.22945,0.132475 -0.290336,0.209664 -0.26355,0.33383 0.01004,0.04655 0.08049,0.317482 0.156579,0.60203 0.171155,0.640058 0.171435,0.63985 -0.105936,0.784965 -0.267762,0.140086 -0.265687,0.141153 -0.751892,-0.348299 -0.217485,-0.218936 -0.417375,-0.411684 -0.443901,-0.428398 -0.09096,-0.05742 -0.142275,-0.04654 -0.349849,0.07235 -0.298841,0.171165 -0.298675,0.166514 -0.108521,0.86248 0.08319,0.304482 0.150713,0.576562 0.149862,0.604614 -0.0025,0.08591 -0.08369,0.165557 -0.261999,0.256832 -0.09035,0.04627 -0.140988,0.05856 -0.182935,0.06305 -0.02065,0.0022 -0.03922,0.0027 -0.05943,0.0041 -0.04471,0.003 -1.837634,-0.02439 -1.882572,-0.01705 -0.104383,0.01702 -0.467003,-0.195702 -0.486276,-0.285254 -0.0075,-0.03505 0.05642,-0.31965 0.143144,-0.63872 0.193163,-0.710703 0.196129,-0.682893 -0.109554,-0.859379 -0.172343,-0.0995 -0.228173,-0.121786 -0.283187,-0.112655 -0.05174,0.0086 -0.175548,0.117037 -0.503328,0.442867 -0.507942,0.504914 -0.496506,0.499658 -0.735873,0.368453 -0.216936,-0.118908 -0.238193,-0.136119 -0.257865,-0.20929 -0.01527,-0.05681 0.146023,-0.737939 0.22686,-0.957564 0.113685,-0.308879 0.09025,-0.377104 -0.186552,-0.536918 -0.296184,-0.171002 -0.278015,-0.178619 -0.784965,0.328145 -0.226727,0.226642 -0.433395,0.425882 -0.459921,0.442351 -0.06824,0.04239 -0.15991,0.02078 -0.328145,-0.07648 -0.107013,-0.06186 -0.158,-0.106688 -0.19172,-0.168466 -0.02372,-0.04347 -0.04131,-0.0837 -0.04082,-0.09302 v -5.16e-4 l 5.17e-4,-5.17e-4 -1.022677,-0.56689 a 0.34056206,0.34056206 0 0 1 -0.123507,0.06356 l -0.191719,0.05064 -0.143144,0.03876 -0.0078,0.01344 -2.624128,1.235583 -0.3751715,-2.844787 -0.01757,-0.132292 v -0.35295 l -0.1121379,-0.0646 v -5.16e-4 l -0.015503,-0.0088 -0.0093,-0.0052 -0.3317624,-0.183451 C 9.2845415,35.789098 9.2559702,35.760177 9.2397461,35.699629 9.2269701,35.651942 9.270697,35.44129 9.3772056,35.038171 9.4997995,34.57418 9.5279908,34.432327 9.50743,34.37878 9.4862572,34.323629 9.441753,34.287892 9.276953,34.192745 8.98137,34.02209 9.0027481,34.012721 8.4821694,34.534843 8.2105741,34.807243 8.0343082,34.967117 7.9917605,34.97926 7.9092096,35.002812 7.6463185,34.877627 7.548893,34.76842 7.4652455,34.674653 7.4694907,34.641731 7.6450117,33.993791 7.7438297,33.628998 7.7824344,33.441344 7.7700681,33.38866 7.7540569,33.320451 7.7314432,33.300583 7.5581949,33.200558 7.3287417,33.068083 7.231686,33.053265 7.137549,33.138546 7.102254,33.17052 6.903061,33.367043 6.6946816,33.575211 6.2259519,34.043465 6.2257508,34.043622 5.9613932,33.875969 5.7061927,33.714124 5.7062044,33.717005 5.8869794,33.051213 5.9678418,32.753399 6.0351003,32.48413 6.0363241,32.452799 6.040581,32.345318 6.0053552,32.305952 5.7986126,32.185632 5.5009586,32.012412 5.5052751,32.010418 4.9976278,32.523079 4.7755348,32.747365 4.5732603,32.941781 4.5485597,32.955094 4.4004068,33.034936 3.6520208,32.584359 3.2395955,32.34893 3.1236009,32.282716 3.028174,32.125083 3.0303062,31.991329 c 0.00383,-0.24081 0.011183,-0.661806 0.021187,-1.267106 0.00181,-0.110499 0.078637,-0.248736 0.181901,-0.283704 0.1291266,-0.04372 0.3108371,-0.09553 0.4852416,-0.141593 0.7120657,-0.188068 0.690397,-0.171544 0.6903976,-0.524516 0,-0.199005 -0.00903,-0.25871 -0.044442,-0.30179 C 4.3312864,29.43211 4.1750387,29.37963 3.7289712,29.258679 3.0377292,29.071247 3.0487636,29.07786 3.0427082,28.80496 c -0.00549,-0.247329 -0.00133,-0.274003 0.052193,-0.327628 0.033874,-0.03393 0.4853396,-0.173431 0.7761799,-0.245463 0.091346,-0.02263 0.2441459,-0.04598 0.3353802,-0.0739 0.1357647,-0.04154 0.1827619,-0.103652 0.1968874,-0.250631 0.00751,-0.0781 0.00832,-0.205825 0.00362,-0.28422 C 4.3949671,27.421941 4.3108188,27.404689 3.7320718,27.2495 3.4224309,27.16647 3.1467105,27.086477 3.1191897,27.071733 c -0.070828,-0.03791 -0.097777,-0.12762 -0.097669,-0.321945 6.39e-5,-0.123604 0.012947,-0.190033 0.049609,-0.250113 0.024917,-0.04087 0.050842,-0.07563 0.059945,-0.08165 l 5.166e-4,-5.17e-4 h 5.167e-4 5.172e-4 c 0.028473,0 1.0696542,-0.282257 1.1322305,-0.306958 C 4.3832752,26.0638 4.4090332,26.000456 4.4090332,25.7545 4.4090321,25.517731 4.3890792,25.451382 4.3046466,25.4062 4.2757796,25.39075 4.0006333,25.31116 3.6933145,25.22895 3.0269222,25.050684 3.0210041,25.046794 3.0210041,24.779882 c -1.6e-6,-0.196876 0.035595,-0.32033 0.1023193,-0.356051 0.025547,-0.01367 0.298342,-0.09275 0.6061647,-0.175183 0.6920412,-0.185329 0.6795451,-0.176296 0.6795451,-0.486275 0,-0.265288 -0.036707,-0.356213 -0.1576133,-0.394291 -0.045341,-0.01428 -0.3095137,-0.08561 -0.5870443,-0.158647 -0.6427617,-0.169144 -0.6527112,-0.17686 -0.6397542,-0.488342 0.012659,-0.304284 0.00636,-0.299715 0.6991821,-0.482141 0.4002319,-0.105387 0.5818104,-0.164687 0.6247679,-0.204122 0.05584,-0.05126 0.060462,-0.07415 0.060462,-0.298173 0,-0.347813 0.00994,-0.340362 -0.7028,-0.528133 -0.3102236,-0.08173 -0.5888109,-0.16866 -0.6185667,-0.192754 -0.048481,-0.03926 -0.054259,-0.06856 -0.05426,-0.284737 -1.59e-5,-0.208768 0.00683,-0.248163 0.051159,-0.292488 0.034912,-0.03491 0.2394569,-0.102037 0.6418215,-0.211357 0.4631239,-0.125828 0.6000433,-0.172983 0.6361365,-0.217558 0.037173,-0.04592 0.046509,-0.101677 0.046509,-0.291971 5e-7,-0.341311 0.018445,-0.327507 -0.6940149,-0.517281 -0.3717038,-0.09901 -0.5981473,-0.1718 -0.6299357,-0.202572 -0.061672,-0.05972 -0.085137,-0.350398 -0.039274,-0.489376 0.039382,-0.119325 0.070441,-0.132409 0.7193359,-0.304374 0.3653285,-0.09682 0.5470821,-0.156736 0.5865276,-0.193787 0.051062,-0.04797 0.057362,-0.07745 0.057361,-0.277502 -6e-7,-0.264948 -0.036691,-0.356438 -0.1576133,-0.395325 -0.045341,-0.01458 -0.3149774,-0.08899 -0.5994467,-0.165365 -0.6398863,-0.171804 -0.6403673,-0.171957 -0.6273518,-0.484724 0.012563,-0.301932 0.011015,-0.300117 0.6779945,-0.476457 0.2983457,-0.07888 0.5649898,-0.155404 0.5927288,-0.170016 0.09521,-0.05006 0.1118032,-0.100307 0.1126546,-0.339514 0.00117,-0.344386 0.0048,-0.341728 -0.692981,-0.525032 -0.1695027,-0.04453 -0.3607433,-0.094 -0.5012614,-0.131775 -0.1129892,-0.03037 -0.2044593,-0.154524 -0.205672,-0.271818 -0.00436,-0.423573 -0.00608,-0.773463 -0.00517,-1.110527 5.311e-4,-0.191067 0.136059,-0.423856 0.301274,-0.519865 0.3117848,-0.181183 0.7945207,-0.46171 1.0852051,-0.629418 0.072448,-0.0418 0.1863398,-0.03613 0.2413288,0.02532 0.01648,0.01842 0.034622,0.03909 0.053743,0.06098 0.090207,0.103245 0.2067937,0.239522 0.326595,0.360185 0.5189052,0.522635 0.4937517,0.512382 0.7994342,0.335897 0.1723437,-0.0995 0.2196592,-0.137442 0.2392622,-0.189653 0.018432,-0.0491 -0.01452,-0.210543 -0.1328083,-0.657324 -0.1832978,-0.692348 -0.1837022,-0.679443 0.049609,-0.821139 0.038924,-0.02364 0.071453,-0.04328 0.099219,-0.05943 0.1044244,-0.06073 0.2941277,-0.0015 0.3870563,0.08165 0.1147947,0.102766 0.2633397,0.244348 0.3813723,0.364319 0.089944,0.09142 0.2167506,0.261731 0.3219439,0.33693 0.042505,0.03038 0.082748,0.04476 0.1271243,0.04444 0.1583406,-0.0011 0.429248,-0.136878 0.4893756,-0.282153 0.040707,-0.09835 -0.00533,-0.259549 -0.1142046,-0.66611 -0.082915,-0.309671 -0.1514349,-0.588397 -0.1524459,-0.6196 -0.00261,-0.08029 0.061616,-0.148912 0.2299603,-0.24598 0.1070785,-0.06175 0.1714838,-0.08335 0.2418455,-0.08165 0.049506,0.0012 0.092996,0.0063 0.1007693,0.01137 H 8.07909 v 5.16e-4 h 5.167e-4 c 0.014234,0.02466 0.779306,0.784977 0.8319904,0.826823 0.099699,0.07918 0.1673344,0.06975 0.3803389,-0.05323 0.2050505,-0.118385 0.2521664,-0.168356 0.2490802,-0.264066 -0.00106,-0.03272 -0.069466,-0.310798 -0.1519287,-0.61805 C 9.2102772,9.7367388 9.2106476,9.7297692 9.4418008,9.5963133 9.6122992,9.4978773 9.73717,9.466472 9.8014688,9.5063964 c 0.024615,0.015288 0.2289332,0.2123357 0.4542362,0.4376996 0.50652,0.506659 0.492228,0.500188 0.760677,0.345198 0.229745,-0.132644 0.290506,-0.209566 0.263033,-0.3333128 -0.0103,-0.046406 -0.08003,-0.3112111 -0.155546,-0.5880776 -0.1749,-0.641224 -0.173395,-0.6533652 0.102836,-0.7978842 0.269846,-0.1411811 0.262484,-0.1444642 0.766878,0.3643191 0.291383,0.2939175 0.433227,0.4212531 0.488859,0.438733 0.07231,0.022721 0.09486,0.014858 0.288872,-0.097152 0.301214,-0.1739065 0.299692,-0.1611603 0.105936,-0.872298 -0.08433,-0.3095254 -0.148619,-0.5936691 -0.142627,-0.6314863 0.0098,-0.061612 0.03293,-0.081564 0.220142,-0.1896522 0.0537,-0.030999 0.0949,-0.054208 0.127641,-0.070797 C 12.052517,7.2585176 11.098169,7.0826561 10.166305,6.9571979 9.973167,6.9311957 9.7955251,6.9051685 9.660392,6.8848509 9.592826,6.8746918 9.5364466,6.8673699 9.4903768,6.8595298 c -0.02304,-0.00392 -0.043012,-0.0071 -0.066662,-0.011886 -0.01183,-0.00239 -0.022832,-0.00642 -0.044442,-0.011885 -0.0108,-0.00273 -0.024306,-0.00613 -0.047025,-0.013436 -0.01136,-0.00366 -0.024598,-0.00738 -0.044959,-0.015502 -0.01986,-0.00792 -0.088284,-0.041012 -0.091984,-0.042891 C 9.165351,6.7466374 9.0943826,6.6918899 9.0940187,6.6915813 9.0936558,6.6912727 8.9712535,6.5549647 8.9710284,6.5546385 c -2.13e-5,-3.09e-5 -9.349e-4,-0.00205 -0.00258,-0.00568 z m 13.312365,0.379305 c -0.03126,0.1613045 0.03254,0.2294425 0.24288,0.3508828 0.246724,0.1424464 0.275321,0.1718313 0.571024,-0.1152385 -0.268203,-0.084927 -0.53947,-0.1632733 -0.813904,-0.2356443 z m 4.848283,0.2025714 c -0.03871,0.061285 -0.05215,0.078431 -0.152445,0.2521808 l -0.331763,0.5741251 a 0.69182416,0.69182416 0 0 1 -0.696081,0.3405481 c -0.01281,0.048838 -0.02645,0.099718 -0.04031,0.151412 -0.18552,0.691988 -0.186801,0.6764844 0.08165,0.8314738 0.229746,0.1326444 0.326698,0.1466464 0.420129,0.060978 0.03504,-0.032124 0.228966,-0.225084 0.430982,-0.4289144 0.467865,-0.4720809 0.479317,-0.4765049 0.74259,-0.3095419 0.257189,0.1631036 0.256635,0.154734 0.06821,0.8459435 -0.10885,0.3993045 -0.148067,0.5859361 -0.135393,0.6428551 0.01647,0.07398 0.03388,0.08952 0.227894,0.201538 0.301215,0.173906 0.289751,0.179201 0.808736,-0.3441656 0.02247,-0.022662 0.04459,-0.045264 0.06666,-0.067179 a 0.69182416,0.69182416 0 0 1 -0.15503,-0.8743652 l 0.33228,-0.5761924 c 0.09988,-0.1730535 0.108897,-0.1915721 0.142627,-0.255798 L 28.033431,7.6522461 Z m -2.987414,0.4046267 c -0.05815,0.2220307 -0.108536,0.4187941 -0.112655,0.4464841 -0.01872,0.1259324 0.02316,0.1798455 0.236162,0.302824 0.205048,0.1183833 0.272124,0.134245 0.353466,0.083716 0.02739,-0.017017 0.228179,-0.2091409 0.449069,-0.4299478 -0.04392,-0.020223 -0.08697,-0.040211 -0.128158,-0.059428 C 24.677921,7.7570312 24.412004,7.64241 24.141679,7.5354576 Z m -10.766268,0.050126 c 0.08418,0.074156 0.203644,0.188207 0.361735,0.3451982 0.340532,0.3381611 0.449776,0.4333847 0.506429,0.4423508 0.05835,0.00924 0.111152,-0.011309 0.275952,-0.1064539 0.175963,-0.1015919 0.24645,-0.134743 0.234094,-0.2950722 -0.47656,-0.1443498 -0.934749,-0.2722914 -1.37821,-0.3860229 z m 16.020727,2.8613234 c -9.63e-4,0.0037 -0.0021,0.0072 -0.0031,0.01085 -0.122588,0.463991 -0.150269,0.605844 -0.129708,0.659391 0.02117,0.05515 0.06516,0.09089 0.22996,0.186035 0.278006,0.160508 0.2756,0.178083 0.70745,-0.254765 -0.175935,-0.141456 -0.355341,-0.278012 -0.538468,-0.409794 -0.08589,-0.06181 -0.176931,-0.127349 -0.266134,-0.19172 z m 1.654163,1.345655 c -0.04299,0.178047 -0.05864,0.278431 -0.05013,0.31471 0.01602,0.06821 0.03862,0.08808 0.211874,0.188102 0.220981,0.127583 0.319271,0.145308 0.41031,0.07028 -0.186047,-0.196665 -0.376901,-0.387761 -0.572058,-0.573092 z m 3.959448,5.443595 c -0.111336,0.02972 -0.211823,0.05387 -0.276985,0.06511 -0.205658,0.0355 -0.299788,0.07037 -0.341065,0.1726 0.255888,0.266155 0.489782,0.529545 0.712101,0.790649 0.225859,0.06118 0.424472,0.118342 0.50798,0.145728 -0.19432,-0.394738 -0.394508,-0.78681 -0.602031,-1.174089 z m 0.738457,1.453658 c 5.81e-4,0.01786 10e-4,0.03682 10e-4,0.05684 -6.6e-5,0.118129 -0.01239,0.183796 -0.04548,0.241846 0.144649,0.177142 0.288649,0.353707 0.435115,0.529167 -0.127423,-0.276639 -0.257733,-0.552896 -0.390673,-0.827857 z" />
    <path
       id="path2"
       style="fill:#000000;fill-opacity:1;stroke:none;stroke-width:0.0474478;stroke-linecap:round;stroke-linejoin:round;paint-order:markers fill stroke"
       d="m 23.23135,21.604344 1.301238,1.430682 1.040401,-1.060507 c 0,0 -0.83008,-3.09357 -1.249131,-4.635297 l -0.0065,-0.04697 -4.801665,-1.324202 0.151251,1.083425 3.424674,0.9445 0.792145,2.943362 z"
       sodipodi:nodetypes="cccccccccc" />
    <path
       style="baseline-shift:baseline;display:inline;overflow:visible;opacity:1;vector-effect:none;fill:#000000;stroke-linejoin:round;paint-order:stroke markers fill;enable-background:accumulate;stop-color:#000000;stop-opacity:1"
       d="m 25.578056,15.56578 0.291331,0.168147 0.291338,0.168144 1.05411,-1.106324 c 0.57976,-0.608478 1.080535,-1.120553 1.112837,-1.137939 0.11375,-0.06121 2.712961,1.844125 4.427308,3.245437 1.735728,1.41879 2.733118,2.919003 3.936118,4.218138 0.582823,0.629402 1.620579,1.872127 1.821737,2.181554 0.05285,0.08131 0.101314,0.138756 0.107716,0.127671 0.0064,-0.01103 -0.103357,-0.347998 -0.244026,-0.748683 C 36.764547,18.088241 34.137959,13.007011 30.065451,10.076327 29.78347,9.8734059 29.442957,9.6276346 29.308736,9.5301687 L 29.064695,9.3529566 29.39665,8.7778117 C 29.717984,8.2210675 29.726905,8.1957676 29.675735,7.9871439 L 29.622835,7.7716183 28.379562,7.0540373 27.136285,6.336455 26.923215,6.398513 C 26.716953,6.458596 26.699581,6.478946 26.377892,7.0362279 L 26.045632,7.6119 25.820281,7.516607 C 25.696324,7.4641923 25.431221,7.3449286 25.231135,7.2515735 21.171194,5.3573227 16.187668,5.2596838 11.608442,5.8170014 10.567028,5.9437459 9.4775233,6.1266298 9.5420353,6.1638659 c 0.01404,0.00817 0.336729,0.05665 0.7170577,0.107852 2.2009,0.2963111 4.528996,0.8726983 7.601755,2.0351313 2.070956,0.7834568 5.020994,2.0809708 5.02488,2.2100948 0.0012,0.03668 -0.191426,0.725194 -0.427842,1.530075 l -0.429849,1.463418 0.246273,0.161842 0.24627,0.161852 z"
       id="path9" />
    <path
       id="path35"
       style="baseline-shift:baseline;display:inline;overflow:visible;opacity:1;vector-effect:none;fill:#000000;stroke-linejoin:round;paint-order:stroke markers fill;enable-background:accumulate;stop-color:#000000;stop-opacity:1"
       d="m 22.539192,13.821379 c -1.753606,3.067425 -3.619582,6.41656 -5.490104,9.801985 l 0.02325,0.09922 2.966744,0.869198 1.076936,-1.097091 c 1.525818,-2.738842 3.032944,-5.425659 4.456576,-7.933366 z m -5.715413,10.209712 c -0.153761,0.278468 -0.307248,0.556918 -0.460954,0.835608 l 0.02222,0.08837 3.405477,0.923458 c 0.215268,-0.387825 0.43086,-0.77535 0.645955,-1.162203 l -0.211873,0.215491 a 0.18522702,0.18522702 0 0 1 -0.183451,0.04651 L 16.86512,24.048661 a 0.18522702,0.18522702 0 0 1 -0.04134,-0.01757 z m -0.681612,1.235584 c -1.987822,3.605944 -3.960807,7.208274 -5.790344,10.51202 v 0.713134 l 0.321944,2.392102 2.149223,-0.965832 0.478523,-0.275952 v -5.17e-4 c 1.972441,-3.591169 4.135463,-7.520637 6.304008,-11.429276 l -3.422013,-0.929143 a 0.18522702,0.18522702 0 0 1 -0.04134,-0.01654 z" />
    <path
       id="path1"
       style="display:inline;fill:#000000;fill-opacity:1;stroke:none;stroke-width:0.82312;stroke-linejoin:round;stroke-dasharray:none;stroke-opacity:1;paint-order:stroke fill markers"
       d="m 25.242387,29.950627 -12.27212,8.289416 -0.02119,0.235645 -0.02119,0.235644 4.270023,2.71663 0.201022,0.03566 0.201538,0.03617 10.023677,-8.809281 -0.0083,-0.01189 c -1.333005,-0.173006 -2.373498,-1.322453 -2.373498,-2.700093 0,-0.0093 -9.6e-5,-0.01858 0,-0.02791 z" />
    <path
       id="rect11-4"
       style="display:inline;fill:#000000;stroke-width:0.82312;stroke-linejoin:round;stroke-dasharray:none;paint-order:stroke fill markers"
       d="m 23.719999,22.85752 -2.155424,1.853633 0.487309,0.585494 2.033984,-2.072225 z m 0.74414,0.510563 -2.174544,2.214852 3.052527,3.667993 c 0.320885,-1.146212 1.379034,-1.995227 2.623096,-1.995227 0.410638,0 0.800765,0.09276 1.150834,0.257865 z m 3.500045,4.55011 c -0.763684,0 -2.005121,1.224354 -2.059306,2.008662 v 5.17e-4 l 0.977202,1.174606 h 5.17e-4 c 0.04482,0.02149 0.09018,0.04224 0.135909,0.06149 h 5.16e-4 l 2.601909,-2.124934 C 29.179304,28.450801 28.46786,27.918193 27.964184,27.918193 Z" />
    <path
       style="baseline-shift:baseline;display:inline;overflow:visible;opacity:1;vector-effect:none;fill:#000000;stroke-linejoin:round;paint-order:stroke fill markers;enable-background:accumulate;stop-color:#000000;stop-opacity:1"
       d="m 30.025109,29.979233 a 2.0611057,2.0611057 0 0 1 -2.061106,2.061106 2.0611057,2.0611057 0 0 1 -2.061106,-2.061106 2.0611057,2.0611057 0 0 1 2.061106,-2.061106 2.0611057,2.0611057 0 0 1 2.061106,2.061106 z"
       id="path11" />
    <path
       style="baseline-shift:baseline;display:inline;overflow:visible;opacity:1;vector-effect:none;fill:#000000;stroke-linecap:round;stroke-linejoin:round;paint-order:stroke fill markers;enable-background:accumulate;stop-color:#000000;stop-opacity:1"
       d="m 22.983548,21.857095 -2.890858,2.944229 -3.175931,-0.931178 -0.760877,-3.264243 -1.087387,-0.133994 1.162855,4.633267 4.950263,1.342124 3.165524,-3.22356 z"
       id="path32" />
    <rect
       style="fill:#000000;fill-opacity:1;stroke:none;stroke-width:0.0532625;stroke-linecap:butt;stroke-linejoin:round;stroke-dasharray:none;stroke-opacity:1;paint-order:stroke fill markers"
       id="rect24"
       width="0.37960461"
       height="1.9298102"
       x="0.51797378"
       y="31.713051"
       inkscape:transform-center-x="0.78525494"
       inkscape:transform-center-y="-0.57578595"
       transform="rotate(-45.460701)" />
  </g>
</svg>
