<?xml version="1.0" encoding="UTF-8"?>
<svg id="Layer_1" data-name="Layer 1" xmlns="http://www.w3.org/2000/svg" viewBox="0 0 575 650">
  <defs>
    <style>
      .cls-1 {
        letter-spacing: .07em;
      }

      .cls-2, .cls-3, .cls-4 {
        fill: #fff;
      }

      .cls-5 {
        stroke-miterlimit: 10;
        stroke-width: 12px;
      }

      .cls-5, .cls-3, .cls-6 {
        stroke: #fff;
        stroke-linecap: round;
      }

      .cls-5, .cls-6 {
        fill: none;
      }

      .cls-7 {
        letter-spacing: .07em;
      }

      .cls-3 {
        stroke-width: 11px;
      }

      .cls-3, .cls-6 {
        stroke-linejoin: round;
      }

      .cls-8 {
        letter-spacing: .05em;
      }

      .cls-4 {
        font-family: NasalizationRg-Regular, Nasalization;
        font-size: 81px;
      }

      .cls-6 {
        stroke-width: 7px;
      }

      .cls-9 {
        letter-spacing: .05em;
      }

      .cls-10 {
        letter-spacing: .05em;
      }
    </style>
  </defs>
  <text class="cls-4" transform="translate(21.15 553.19)"><tspan class="cls-7" x="0" y="0">GOLD</tspan><tspan class="cls-8" x="256.61" y="0"> </tspan><tspan class="cls-9" x="282.12" y="0">R</tspan><tspan class="cls-1" x="344.08" y="0">USH</tspan><tspan class="cls-9" x="33.66" y="71">R</tspan><tspan class="cls-1" x="95.62" y="71">OB</tspan><tspan class="cls-10" x="230.65" y="71">O</tspan><tspan class="cls-1" x="300.47" y="71">TICS</tspan></text>
  <path class="cls-5" d="m411.42,432.29c-.67.47-1.33.93-2,1.39-35.87,24.6-79.28,38.99-126.06,38.99-89.24,0-166.25-52.39-201.94-128.1"/>
  <path class="cls-5" d="m495.68,318.35c-1.9,5.88-4.04,11.65-6.41,17.3"/>
  <path class="cls-5" d="m506.49,249.55c0-5.27-.18-10.49-.54-15.66"/>
  <path class="cls-5" d="m377.98,47.42c51.87,24.32,92.85,68.02,113.61,121.78"/>
  <path class="cls-5" d="m64.75,294.41c-2.96-14.49-4.51-29.49-4.51-44.86,0-123.23,99.9-223.13,223.13-223.13,14.11,0,27.92,1.31,41.31,3.82,1.4.26,2.8.54,4.19.83"/>
  <g>
    <path class="cls-2" d="m426.87,421.32c-2.01,0-3.92-.77-5.38-2.16l-221.48-212.19-2.73,2.73c-2.27,2.27-5.29,3.52-8.51,3.52s-6.24-1.25-8.51-3.52l-2.27-2.27-1.77,1.85c-44.55,46.6-81.11,89.29-102.93,120.19-.2.28-.42.41-.7.41-.3,0-.62-.15-.81-.38-.16-.19-.21-.43-.15-.73,10.42-54.18,34.88-107.08,70.74-152.99l1.36-1.74-3.85-3.85c-4.69-4.69-4.69-12.33,0-17.02l3.04-3.04-9.98-9.98c-.63-.63-.98-1.47-.98-2.37s.35-1.74.98-2.37l.12-.12,31.22-41.09c.62-.57,1.42-.88,2.26-.88.89,0,1.74.35,2.37.98l14.92,14.92,2.17-2.17c2.27-2.27,5.29-3.52,8.51-3.52s6.24,1.25,8.51,3.52l3.75,3.75,1.74-1.37c46.15-36.28,99.38-61.01,153.95-71.5.08-.02.16-.02.24-.02.58,0,.79.56.82.67.2.63-.22.92-.35,1.02-30.91,21.82-73.59,58.38-120.19,102.93l-1.85,1.77,2.27,2.27c4.69,4.69,4.69,12.33,0,17.02l-2.73,2.73,212.19,221.48c2.9,3.03,2.84,7.91-.12,10.88l-20.35,20.35c-1.47,1.47-3.42,2.28-5.5,2.28h0Z"/>
    <path class="cls-2" d="m355.74,41.88c-30.41,22.23-70.74,57.03-114.49,98.86l-3.7,3.53,3.61,3.62.46.46c3.72,3.72,3.72,9.77,0,13.48l-1,1-3.46,3.46,3.39,3.53,210.49,219.71c1.97,2.06,1.93,5.37-.08,7.38l-20.35,20.35c-1,1-2.32,1.55-3.73,1.55s-2.66-.52-3.65-1.46l-219.71-210.49-3.53-3.39-3.46,3.46-1,1c-1.8,1.8-4.19,2.79-6.74,2.79s-4.94-.99-6.74-2.79l-.46-.46-3.62-3.62-3.53,3.7c-41.83,43.75-76.63,84.08-98.86,114.49,11.07-51.27,34.76-101.16,68.79-144.72l2.72-3.49-3.13-3.13-2.28-2.28c-1.8-1.8-2.79-4.19-2.79-6.74s.99-4.94,2.79-6.74l1.27-1.27,3.53-3.54-3.54-3.54-8.21-8.21c-.33-.33-.33-.87,0-1.2l.24-.24.21-.27,30.93-40.72c.16-.1.33-.13.45-.13.16,0,.4.04.6.25l13.15,13.15,3.54,3.54,3.54-3.54.4-.4c1.8-1.8,4.19-2.79,6.74-2.79s4.94.99,6.74,2.79l2.18,2.18,3.14,3.14,3.49-2.74c43.8-34.44,94.02-58.39,145.67-69.54m6.96-6.45c-.23,0-.47.02-.71.07-56.54,10.88-109.68,36.35-155.02,71.99l-2.18-2.18c-2.84-2.84-6.56-4.26-10.28-4.26s-7.44,1.42-10.28,4.26l-.4.4-13.15-13.15c-1.14-1.14-2.64-1.71-4.14-1.71s-2.99.57-4.14,1.71l-31.23,41.11c-2.28,2.28-2.28,5.99,0,8.27l8.21,8.21-1.27,1.27c-5.68,5.68-5.68,14.88,0,20.55l2.28,2.28c-35.24,45.12-60.42,97.91-71.23,154.05-.46,2.39,1.45,4.08,3.42,4.08,1.01,0,2.02-.44,2.74-1.46,22.92-32.46,60.56-75.83,102.69-119.91l.46.46c2.84,2.84,6.56,4.26,10.28,4.26s7.44-1.42,10.28-4.26l1-1,219.71,210.49c1.99,1.9,4.55,2.85,7.1,2.85s5.26-1.01,7.27-3.01l20.35-20.35c3.95-3.95,4.02-10.33.16-14.37l-210.49-219.72,1-1c5.68-5.68,5.68-14.88,0-20.55l-.46-.46c44.08-42.14,87.45-79.78,119.91-102.69,2.81-1.98,1.25-6.23-1.91-6.23h0Z"/>
  </g>
  <g>
    <line class="cls-6" x1="243" y1="279.51" x2="191.06" y2="231.05"/>
    <path class="cls-2" d="m249.29,272.78c3.72,3.47,3.92,9.3.45,13.02s-9.3,3.92-13.02.45c-3.72-3.47-3.92-9.3-.45-13.02s9.3-3.92,13.02-.45Z"/>
    <path class="cls-2" d="m197.34,224.31c-3.72-3.47-9.55-3.27-13.02.45-3.47,3.72-3.27,9.55.45,13.02,3.72,3.47,9.55,3.27,13.02-.45s3.27-9.55-.45-13.02Z"/>
  </g>
  <g>
    <polyline class="cls-6" points="279.11 444.11 231.72 399.89 171.78 396.88"/>
    <path class="cls-2" d="m285.39,437.37c3.72,3.47,3.92,9.3.45,13.02-3.47,3.72-9.3,3.92-13.02.45-3.72-3.47-3.92-9.3-.45-13.02s9.3-3.92,13.02-.45Z"/>
    <path class="cls-2" d="m172.24,387.68c-5.08-.26-9.41,3.66-9.66,8.74-.26,5.08,3.66,9.41,8.74,9.66s9.41-3.66,9.66-8.74c.26-5.08-3.66-9.41-8.74-9.66Z"/>
  </g>
  <g>
    <line class="cls-6" x1="362.04" y1="431.83" x2="253.24" y2="328.82"/>
    <path class="cls-2" d="m368.37,425.14c3.69,3.5,3.85,9.33.36,13.02s-9.33,3.85-13.02.36c-3.69-3.5-3.85-9.33-.36-13.02s9.33-3.85,13.02-.36Z"/>
    <path class="cls-2" d="m259.57,322.13c-3.69-3.5-9.52-3.34-13.02.36s-3.34,9.52.36,13.02c3.69,3.5,9.52,3.34,13.02-.36,3.5-3.69,3.34-9.52-.36-13.02Z"/>
  </g>
  <g>
    <polyline class="cls-6" points="106.17 320.35 120.97 336.02 219.04 340.93"/>
    <path class="cls-2" d="m99.47,326.68c-3.49-3.7-3.33-9.53.37-13.02,3.7-3.49,9.53-3.33,13.02.37,3.49,3.7,3.33,9.53-.37,13.02-3.7,3.49-9.53,3.33-13.02-.37Z"/>
    <path class="cls-2" d="m218.58,350.13c5.08.25,9.41-3.66,9.66-8.74.25-5.08-3.66-9.41-8.74-9.66s-9.41,3.66-9.66,8.74c-.25,5.08,3.66,9.41,8.74,9.66Z"/>
  </g>
  <g>
    <polyline class="cls-6" points="386.4 415.32 269.7 304.9 217.97 299.33 167.76 252.48"/>
    <path class="cls-2" d="m392.73,408.63c3.69,3.5,3.86,9.33.36,13.02-3.5,3.69-9.33,3.86-13.02.36-3.69-3.5-3.86-9.33-.36-13.02,3.5-3.69,9.33-3.86,13.02-.36Z"/>
    <path class="cls-2" d="m174.04,245.74c-3.72-3.47-9.55-3.27-13.02.45s-3.27,9.55.45,13.02c3.72,3.47,9.55,3.27,13.02-.45s3.27-9.55-.45-13.02Z"/>
  </g>
  <g>
    <line class="cls-6" x1="247.79" y1="369.78" x2="134.86" y2="365.07"/>
    <path class="cls-2" d="m248.17,360.58c5.08.21,9.03,4.51,8.82,9.59-.21,5.08-4.51,9.03-9.59,8.82-5.08-.21-9.03-4.51-8.82-9.59.21-5.08,4.51-9.03,9.59-8.82Z"/>
    <path class="cls-2" d="m135.25,355.86c-5.08-.21-9.38,3.74-9.59,8.82-.21,5.08,3.74,9.38,8.82,9.59,5.08.21,9.38-3.74,9.59-8.82.21-5.08-3.74-9.38-8.82-9.59Z"/>
  </g>
  <g>
    <line class="cls-6" x1="324.43" y1="439.26" x2="273.27" y2="391.53"/>
    <path class="cls-2" d="m330.71,432.53c3.72,3.47,3.92,9.3.45,13.02-3.47,3.72-9.3,3.92-13.02.45-3.72-3.47-3.92-9.3-.45-13.02s9.3-3.92,13.02-.45Z"/>
    <path class="cls-2" d="m279.55,384.79c-3.72-3.47-9.55-3.27-13.02.45-3.47,3.72-3.27,9.55.45,13.02,3.72,3.47,9.55,3.27,13.02-.45,3.47-3.72,3.27-9.55-.45-13.02Z"/>
  </g>
  <g>
    <polyline class="cls-6" points="192.67 310.46 152.73 273.31 125.03 299.39"/>
    <path class="cls-2" d="m198.94,303.72c3.72,3.46,3.94,9.29.47,13.02-3.46,3.72-9.29,3.94-13.02.47-3.72-3.46-3.94-9.29-.47-13.02s9.29-3.94,13.02-.47Z"/>
    <path class="cls-2" d="m118.72,292.68c-3.7,3.49-3.88,9.32-.39,13.02s9.32,3.88,13.02.39c3.7-3.49,3.88-9.32.39-13.02s-9.32-3.88-13.02-.39Z"/>
  </g>
  <path class="cls-3" d="m410.86,316.43c18.18-14.27,29.86-36.47,27.62-61.16-3.4-37.49-36.54-65.13-74.03-61.73-19.53,1.77-35.03,12.78-47.57,25.92l-56.26-58.06c6.46-6.19,7.07-6.78,13.54-12.97l41,17.04c5.55-2.69,8.27-4,13.82-6.69l11.84-42.61c8.89-1.24,9.73-1.35,18.61-2.59l23.07,37.75c6.07,1.07,9.05,1.59,15.13,2.66l34.76-27.58c7.91,4.19,8.66,4.59,16.58,8.78l-3.67,44.05c4.28,4.41,6.38,6.58,10.66,11l44.4-2.02c3.92,8.02,4.29,8.78,8.21,16.8l-29,33.52c.85,6.07,1.27,9.06,2.11,15.13l37.09,24.32c-1.57,8.78-1.72,9.62-3.29,18.4l-43.26,10.19c-2.9,5.41-4.33,8.07-7.23,13.49l15.61,41.37c-6.46,6.19-7.08,6.78-13.54,12.97l-56.18-57.97Z"/>
  <polygon class="cls-3" points="363.72 233.41 346.43 249.75 380.78 285.73 398.06 269.38 391.28 241.48 363.72 233.41"/>
</svg>